<svg width="67" height="70" viewBox="0 0 67 70" fill="none" xmlns="http://www.w3.org/2000/svg">
<path d="M13.5 37L9.5 41L9 40.5L8 38.5L6.5 36.5L5 34L4 33.5L3 32.5L1.5 31L1 29.5L2 28.5L5.5 26L7 24.5C7 24.3333 7.4 24 9 24C10.6 24 11 23.3333 11 23L13 22L15 21.5H17C17.1667 21.6667 17.8 22.2 19 23L20.5 22.5V21L20 19C19.5 18.5 17.8 16.9 15 14.5C13 12.9 13.1667 11.8333 13.5 11.5L15 10.5L18 9.5L21.5 7L25 5L27 4.5L30 6C31.6 6.8 32 5.66667 32 5L34 3C34.3333 2.5 35.4 1.6 37 2C38.6 2.4 38.6667 2.5 38.5 2.5L40 4.5L42 5.5C42.1667 5.5 43 5.3 45 4.5C47 3.7 47.5 4.16667 47.5 4.5L48.5 4L50 3.5L51 4.5L52.5 5L53 4.5H54.5L57 3L59.5 1.5L61 2.5L63 7.5L64 12V21L63 23L62.5 26L64 29.5L66.5 37V40L65.5 41L62.5 41.5L57 40.5L54 41L52.5 41.5V43L54 44C55.2 44.8 54.8333 45 54.5 45L55 46L54.5 47L52 47.5L49.5 49.5L50 51.5V53L46.5 55.5L45 56.5L43 57.5L42 56.5H40L37.5 57.5L35.5 59L33.5 60L32.5 62C32.1 63.2 31.6667 63.8333 31.5 64C31.5 64.3333 31.2 65.6 30 68C29.6 69.2 28.8333 68.8333 28.5 68.5L26.5 67L26 64L26.5 60L26 59L24 54L22.5 48L21.5 43.5L22 43L25 37.5L26 36.5V35.5L25 34L20 36H15L13.5 37Z" stroke="#EE1E1E"/>
</svg>
