<svg width="80" height="64" viewBox="0 0 80 64" fill="none" xmlns="http://www.w3.org/2000/svg">
<path d="M3 20.5L1.5 17L4 15L9 13.5L14.5 12L19 11.5L22 14L25 12L28 13.5H33L36 10.5H41.2978L41.5 7.5L46.5 8L51.5 13L53.5 12.5L58.5 9L63 4H69L74 1L79.5 1.5V5L77.5 6V9L78 10.5L77.5 13L69 18.5L66 17.5L64 18.5L61.5 23L68.5 30.5L72 34L76 37.5V38.5L74 43L71.5 45.5V48L77 49V50L78 52V54L77 56L74 56.5L71.5 55.5L70 54L69.5 52L65 48.5H64L61.5 53.5L60 53L58.5 50.5H49L47 47.5L46.5 44.5L44 43.5L42.5 42L40.5 44L37.5 48L37 50.5V53.5L36.5 56.5L38 59.5L38.5 61.5L37.5 62.5L33.5 60L32 58.5L30 56L29.5 54L28.5 52.5L27 51L26 48L25.5 45.5L24 43.5L21.5 41.5L16 35.5L9 28L6 27.5H4.5L3 25.5L3.5 23L3 20.5Z" stroke="#EE1E1E"/>
</svg>
