<svg width="121" height="68" viewBox="0 0 121 68" fill="none" xmlns="http://www.w3.org/2000/svg">
<path d="M3 60L1.5 57.5V52.5L0.5 51.5V47L2.5 45.5H9L11 46L13 47.5L14.5 49.5L15 49L19 43L19.5 41.5L20 41L21 40.5L23 37L23.5 36L24 34.5L25 32.5L22.5 30L20.5 29L17.5 27.5V25.5L16.5 24.5L15.5 24L14 23.5H11.5L10.5 24H9.5L6.5 21.5L5.5 19.5L4.5 18.5L4 16L4.5 15H5.5L6.5 15.5L9 16L10 15.5L12.5 15L15.5 15.5H16H19V16L19.5 17L20 17.5V18.5L21.5 21H22.5L24 20.5L29 14.5H30.5L32 14L31.5 12.5V9H33L34.5 10.5V11.5L35.5 12.5L36 12C36.4 11.6 36.5 11.1667 36.5 11L37.5 10L38 9V8L38.5 7.5H39.5L40.5 8L42.5 8.5L44 9.5L47 9L48 7.5L49.5 6.5L51 6L53.5 4L56.5 2L58.5 1C59.3 1 59.8333 1.33333 60 1.5L61 2L63 2.5L65.5 4.5L66 8L66.5 12L66 16.5L65.5 18.5L66.5 20L67 20.5L69.5 21.5L71 22.5L72 23.5L73 24.5L74 25.5L74.5 26.5L75.5 28L76 28.5H77L78 27.5L79.5 25.5L80 24L80.5 23C80.5 22.2 81.8333 22.6667 82.5 23C83.7 23 84.6667 22.6667 85 22.5L86 21.5L86.5 20.5L87.5 19.5L90 19H91L92.5 19.5V20.5L93.5 21.5C93.9 22.3 93.6667 23.1667 93.5 23.5L96 25.5L101.5 30L104 30.5L107 29.5H108.5L111 30L113 29.5L115 29L116 29.5L117 30L118.5 31.5L119.5 32L120 33.5L119 35.5L117.5 39L115.5 43.5L114 44.5L113 45H110L109.5 45.5L108.5 46L108 46.5H107C106.6 46.5 106.167 45.8333 106 45.5L105 44.5L104.5 43.5L104 43H103.5H102.5L102 43.5L101.5 45.5L102 47.5L103 48.5L104 49.5V50.5L103.5 52L99.5 57.5L99 59.5L98.5 62L99.5 64V65.5L100.5 66.5L99.5 67.5H96.5L95.5 66.5H90.5L89.5 65.5H80.5L74.5 59.5H66.5L65.5 58.5H63.5L61.5 60.5H59.5L57.5 58.5H54.5L53.5 59.5H51.5L48 58L45.5 57.5L43.5 55.5H37.5L36 56.5H34.5L32 53.5H27.5L26.5 54.5H24.5L23.5 55.5H20.5L19.5 56.5H15.5L13.5 54.5H12L7.5 58.5V59V60.5H6.5H4L3 60Z" stroke="#EE1E1E"/>
</svg>
