<svg width="79" height="83" viewBox="0 0 79 83" fill="none" xmlns="http://www.w3.org/2000/svg">
<path d="M74.5 76V76.5L75.5 77.5V78.5L76.5 79.5L78 80.5L75 82.5H72.5L71 81.5H67L60.5 77.5H56.5L49.5 70.5V69.5L47.5 67.5H45.5C45.1 67.5 42.3333 65.8333 41 65L40 63.5L38 61.5H32.5C32.3333 61.3333 32 60.9 32 60.5C32 60.1 30.6667 60 30 60L29 58.5L27 57.5H25L22.5 59.5H21L19.5 58.5H17.5L16.5 57.5H14.5L12.5 58H11L9.5 55.5L6.5 52.5H3.5L3 51.5L2.5 50V46L1.5 44.5L2.5 43.5C2.9 43.1 2.66667 42 2.5 41.5L3 40L3.5 39L5 36.5L5.5 35V32.5L6 31.5H7.5L9 30.5L10 29.5L11 27.5L12 26.5L10.5 23.5V22.5L12 21L12.5 19.5L13.5 18.5V14L14.5 12.5V11L15.5 9.5H16.5L18.5 8.5L20.5 6.5L22.5 5L24 4L25.5 2.5H26L28 2L29.5 1.5H31.5C32 1.16667 33.1 0.5 33.5 0.5H35.5L36.5 1.5L38.5 2.5L39.5 3.5L41 5.5L41.5 6.5L40.5 7.5V9.5L41.5 11V13.5L41 16L41.5 16.5H44.5L46.5 15L48.5 12.5L49 11.5L50.5 12.5H52.5L53.5 13.5V15.5C53.3333 16.1667 52.9 17.5 52.5 17.5C52.1 17.5 53 18.1667 53.5 18.5L55.5 20.5L57.5 22L58 23.5H59.5L61.5 25.5L64.5 29.5L66.5 30L67.5 29.5H70.5L71.5 30V33.5L72.5 34.5V37.5L73.5 38.5V42.5L71.5 43.5V51.5L72.5 52.5L74.5 54.5L75.5 59.5L76.5 60.5V62.5L75.5 63.5L73.5 64.5V66.5L74.5 67.5L75.5 68.5L77 70.5L77.5 72.5L76.5 73.5L75.5 74.5L74.5 76Z" stroke="#EE1E1E"/>
</svg>
