<svg width="50" height="78" viewBox="0 0 50 78" fill="none" xmlns="http://www.w3.org/2000/svg">
<path d="M2.5 27.5L3.5 26.5H5.5L6 27L6.5 27.5H8.5L9.5 26.5H10.5L12 25.5L12.5 24.5L13.5 23.5V22.5L11.5 20.5V19.5L10.5 18.5H9.5L7.5 16.5V14.5H8.5L9.5 13.5V12.5L10.5 12L11.5 10.5H16.5L18.5 8.5H20L21.5 9.5L24 12.5H25L25.5 11.5V11L28 7.5H33.5L34.5 6.5V4.5L35.5 4V2.5H38.5L41 0.5H42.5L44.5 2.5H47.5V3.5V8.5L48 9.5L49.5 11.5V12.5L48.5 13.5V16.5L49.5 17.5V18.5L48.5 19.5L47.5 19L46.5 20.5H45.5L44.5 21.5V27.5H41.5L40.5 26.5H39.5L38 28.5L36.5 29.5L37.5 30.5V33.5L36.5 34.5L35 35.5H33.5L32.5 36.5H31.5V37.5L30.5 38.5H29.5L28.5 39.5V41.5L27.5 42.5V45.5L28.5 46.5V47.5V49.5H27.5L26.5 50.5V53.5L27.5 54.5V56.5L28.5 57.5V58.5L29.5 59.5V68.5L30.5 69.5V71.5L29.5 72.5L28.5 74.5V76.5V77.5H26.5L23.5 74.5H21L18.5 71.5L17 70.5H15.5H14.5L13.5 71L13 71.5H12.5V71L11 69.5H10L8.5 68.5L7.5 69L6.5 70.5L4.5 72.5H3.5H2.5V70.5L0.5 68.5V65.5L1.5 64.5V63.5L2.5 62.5V60.5L3 60L4.5 58.5V55.5L3 54.5L4.5 53.5V51.5L2.5 49.5H2L1.5 48.5L3.5 46.5H4.5L5.5 45.5V43.5L4.5 42.5V41.5L3.5 41V39.5L1.5 37.5V32.5L2.5 31.5" stroke="#EE1E1E"/>
</svg>
