<svg width="76" height="77" viewBox="0 0 76 77" fill="none" xmlns="http://www.w3.org/2000/svg">
<path d="M75.5 46.5L74.5 47.5V49L73.5 50.5L69.5 49.5L67.5 50L65.5 51.5L63 53L60 53.5L55.5 51.5L53.5 52L49.5 54.5L47 56.5L42.5 60.5L43 62L40.5 64V67.5L38 69.5L37.5 68.5L36.5 69V70.5L34.5 72.5H33.5L30.5 74.5L27.5 75L26.5 76L25 74.5L23 72L20.5 70L18 68L16 66L11.5 62L12.5 59.5V56.5L9.5 53.5L7.5 52.5L6.5 50.5V46L5.5 44.5V40.5L4.5 39.5V38.5L3.5 37.5V36.5L2.5 35.5V32.5L1.5 31.5V30.5L0.5 28.5V26L1 24.5L1.5 23L2.5 20.5L3.5 19.5L5 18.5L5.5 17L7.5 13.5L10.5 11.5L11 5.5L14.5 2.5H17.5L18.5 3.5H21.5L23.5 2.5H24.5L26.5 4.5H29.5L31 3.5L32.5 4L34.5 2.5L35.5 1.5H37.5C38 1.16667 39.1 0.5 39.5 0.5H43L45.5 1.5L46.5 2.5L48 3.5V4.5H50L50.5 5.5L51.5 6.5H52.5L53.5 7.5H55L56.5 8.5L57.5 9.5V10.5L56.5 11.5V12.5L57 13.5H58.5L60.5 14.5L61.5 16.5L62.5 18.5L63.5 19.5V21.5L64.5 23.5V26.5L63.5 28.5L62.5 30.5L60.5 32.5V36L61.5 37.5L65.5 42.5L67 45L69.5 47.5L71.5 45L74.5 44.5L75.5 45.5V46.5Z" stroke="#EE1E1E"/>
</svg>
