<svg width="71" height="83" viewBox="0 0 71 83" fill="none" xmlns="http://www.w3.org/2000/svg">
<path d="M62 13.5L67.5 14L70 15.5L68.5 18.5L67 20.5L66.5 23L64.5 26V31L67 34V36.5H65L62.5 34L60.5 36.5V48.5L63 54.5L65.5 56.5V59.5L62 58.5H57.5H53L51.5 59L48 62H44.5L40.5 63L38.5 65.5L38 67.5L38.5 72.5L39 75.5L38 78L36 78.5H32L30.5 79.5L27.5 78L24.5 79.5L23 82L20.5 82.5H16.5L13 81L8.5 77L6 73.5L4.5 67.5L3.5 65L1 63V59L2 56.5C2.8 53.7 3.66667 52.6667 4 52.5L6 51.5L7 50.5V49L5.5 48L4.5 46.5L5 45L6.5 44.5H8L9 43.5L10 41.5L11.5 42L13 43L13.5 43.5H15.5L17.5 43L18.5 43.5C18.8333 43.8333 19.6 44.5 20 44.5C20.4 44.5 21.1667 44.1667 21.5 44V42V40.5L20.5 39V36L24 30.5L28 27L30.5 27.5L33 28.5C34.1667 29.1667 36.5 30.6 36.5 31C36.5 31.4 37.5 31.1667 38 31L38.5 30.5L39 27.5V22.5L40 19L40.5 12L38 5.5L38.5 3L39.5 2.5L41 1.5L42.5 2L44.5 3.5L47 6.5L48 7.5C48.3333 7.5 49.4 7.1 51 5.5L52 6L53.5 6.5L55.5 7.5L57.5 9L58.5 10.5L59.5 11.5L60.5 12.5L62 13.5Z" stroke="#EE1E1E"/>
</svg>
