<svg width="82" height="70" viewBox="0 0 82 70" fill="none" xmlns="http://www.w3.org/2000/svg">
<path d="M75.5 44L81 40V39L79 38L77 37L75 36.5H73L70 39.5H69L67.5 38L64.5 35.5L61 35L57 33L54 30.5L54.5 27L56 25L58.5 24.5L62 23.5L62.5 20L61 16L58.5 12.5V10.5L62 8V6.5L60 4.5L56.5 3.5L54 3L52 4L50 3L46 1.5L43 1L39.5 2L37 3.5L35.5 5L34 5.5L32.5 4.5L30 5L28 6L26 5L22 4.5L18 1.5H16L15 2.5L13 4H11H9.5L7.5 6L6 7L4.5 7.5L3 9.5L1 14V27.5L1.5 31L4 33.5L6 36.5L7 40.5V42L8.5 45.5L10.5 48L13.5 48.5L14.5 50L14 51.5L12 52.5L10.5 54L10 55.5L7.5 58.5V61.5L9 64L10.5 63L12 61.5L15 60.5L19 59L21.5 60.5L24.5 59.5L27 61.5L29.5 65.5L31.5 68L33.5 68.5L35 65.5L34 61.5L37 57.5L37.5 55L38.5 51.5L42 48.5L45.5 47.5L51 48L54 45.5H60.5L61.5 46.5H73.5L75.5 44Z" stroke="#EE1E1E"/>
</svg>
