<svg width="112" height="113" viewBox="0 0 112 113" fill="none" xmlns="http://www.w3.org/2000/svg">
<path d="M57 6.5C58 6.66667 60.2 7 61 7L62.5 6.5L63.5 5V3L66 0.5H67L72.5 6H73.5L76 2.5H77L78 5L79.5 8L80 9L79 9.5L78.5 10.5V12.5L80.5 14.5L84 17L85.5 18.5C85.8333 18.3333 86.9 18.3 88.5 19.5C90.1 20.7 90.8333 21.6667 91 22C91.1667 22.1667 91.9 22.4 93.5 22C95.1 21.6 96.1667 21.5 96.5 21.5C96.8333 21.5 97.5 21.7 97.5 22.5C97.5 23.3 97.5 24.8333 97.5 25.5L95.5 28L92 36V37.5L92.5 39.5L93.5 44L94.5 46L97 47L98 48.5L100 49.5L101.5 50.5H102.5L104 51.5C103.667 51.3333 103.5 51.4 105.5 53C107.5 54.6 108.333 55.6667 108.5 56L110 57V58C110.5 57.8333 111.1 57.9 109.5 59.5C107.9 61.1 106.167 62.8333 105.5 63.5L105 66.5L104 69L102 70.5L101 72.5L102 74.5L103 79L105.5 81L106.5 82L107 84.5L106.5 86L105 89L106 90L108 91.5L110 93C110 93.1667 110 93.7 110 94.5C110 95.3 109.667 96.1667 109.5 96.5L108 97C108 97.1667 107.6 97.7 106 98.5L104 99.5C103.6 101.5 103.5 103 103.5 103.5C103.333 103.667 103.2 104.2 104 105C104.8 105.8 105.333 106.667 105.5 107L106 108.5L105.5 109L102 110.5L100 111C99.5 110.833 98.1 110.5 96.5 110.5C94.9 110.5 94.5 110.5 94.5 110.5L92 111.5L89.5 111L81.5 105V103.5C81.8333 103.333 82.3 102.9 81.5 102.5C80.5 102 80.5 103 80.5 102C80.5 101.2 79.8333 100.333 79.5 100L76 100.5L74.5 101.5C74.6667 101.667 74.7 102.2 73.5 103C72.3 103.8 71 104 70.5 104L69 103.5L67.5 106L66.5 108C66.3333 108.5 65.8 109.5 65 109.5C64.2 109.5 63.3333 108.833 63 108.5L62 107L61 105.5L59.5 103.5C59.5 103.5 59.1 103.3 57.5 102.5C55.9 101.7 54.8333 101.167 54.5 101C53.7 99.8 53.8333 98.5 54 98L54 94.5V92.5V89.5V87.5C54 87.5 53.9 87.2 53.5 86C53.1 84.8 53 84.5 53 84.5L51.5 83.5L50 83L48 82.5L47 82L45.5 82.5L44 83L42.5 84L41 85L40 86L38.5 87L36.5 88L35.5 89L34 90H31.5L29.5 89L27.5 88L26.5 86L26 84L25 83L24 82L23 81L21.5 80L20.5 79L19.5 77L18 76L16.5 74L16 71L16.5 69L17.5 67.5L18.5 67L19.5 65.5L20 65L20.5 62V60V58C19 56 20 58 19.5 57L18.5 55.5H16.5L14.5 54L13.5 53.5L13 53L13.5 52.5L16 51.5L17 50.5C17 45.7 17 43.5 17 43L16.5 41.5L15 41H8.00002L4.50002 40L3.00002 39L2.00002 38.5V37C0.800015 35 0.833349 35.1667 1.00002 35.5C0.600003 34.7 1.83333 34.1667 2.5 34L5 32.5L6 31.5L6.5 30V28C8.1 26.8 10.1667 25.8333 11 25.5H12.5C12.8333 25.3333 13.6 25.2 14 26C14.4 26.8 14.5 27.3333 14.5 27.5L15.5 28C15.3333 28 15.3 28.1 16.5 28.5C17.7 28.9 19 29.3333 19.5 29.5H21L22.5 28.5H24.5L26 29.5H27.5V25L27 23.5C27.8 21.5 27.6667 21.6667 27.5 22L30.5 16.5L32 16L34 16.5L36.5 16L37.5 15L38.5 13.5L39 12.5H40.5L41.5 13.5C41.5 13.5 41.7 13.7 42.5 14.5C43.3 15.3 43.8333 15.1667 44 15L45.5 14L47.5 11.5L54 10L56 9.5L57 9L57 6.5Z" stroke="#EE1E1E"/>
</svg>
