<svg width="70" height="80" viewBox="0 0 70 80" fill="none" xmlns="http://www.w3.org/2000/svg">
<path d="M4 34L2.5 33L1 30C0.6 29.2 0.5 28 0.5 27.5L2 26L4 25L4.5 24.5H5.5L7 25L8.5 27L10 27.5L12 27L13 25.5L15.5 24L18 23.5L19.5 23L22 21.5L26 20L29 19.5C31 19.1 30.5 18.6667 30 18.5L29.5 17L29 15L28.5 13.5L30 12L32 10.5L34.5 9L37 7L39.5 4L41 3H45.5L48 2L50.5 0.999997C51.3 0.599997 51.5 1.16666 51.5 1.5L52 2.5V3.5L51 4.5L49.5 7.5L47.5 10.5L48 13L50 21.5L51 24L52.5 27L52 31C52 32.6 52.3333 33.3333 52.5 33.5C52.5 33.9 53.1667 34.3333 53.5 34.5C53.5 34.6667 53.8 35.3 55 36.5L55.5 37.5C55.6667 37.6667 56.4 38.2 58 39C59.2 39.8 58.8333 40.3333 58.5 40.5L58 41.5L57.5 42.5L55.5 44.5C54.7 45.3 55.1667 46.5 55.5 47L55 48L55.5 49.5L56.5 50.5H59H61L63.5 51H64.5H66L67.5 50.5H68.5L69.5 51.5V52V53V53.5C69.5 53.9 69.1667 54 69 54H67.5H66L65 55.5L64.5 57L63 58L62 59.5C61.2 60.7 61 60.6667 61 60.5V61.5L61.5 62L63 63C63 63.3333 63.1 64.3 63.5 65.5C63.9 66.7 63.3333 67.3333 63 67.5V68.5L62.5 70L62 71L61.5 71.5C60.6667 71.6667 58.6 72 57 72L55.5 73C55.3333 73.1667 54.8 73.8 54 75C53.2 76.2 51.6667 76.5 51 76.5L48.5 78C48 78.3333 46.5 79 44.5 79C43.7 79 42.8333 78.6667 42.5 78.5L39.5 77L39 76.5L37.5 75L35.5 74H33L31 73.5L29.5 72L28.5 71C28.1667 70.6667 27.2 70.1 26 70.5C25.2 70.9 25 70.3333 25 70C24.5 69.6667 23.5 68.7 23.5 67.5C23.5 66.3 23.8333 66 24 66L25 65L23.5 63L22.5 61.5L24.5 59.5V57.5L25.5 56V50.5L26.5 50L27 48.5L27.5 46.5L27 45L26 43.5L25 43H23.5C23.3333 43 22.6 43.1 21 43.5C21 43.8333 20.9 44.6 20.5 45C20.1 45.4 19.6667 45.1667 19.5 45L18 44L17 42L16 41L14.5 39L13 38.5L10 37.5L7.5 35.5L4 34Z" stroke="#EE1E1E"/>
</svg>
