<svg width="45" height="60" viewBox="0 0 45 60" fill="none" xmlns="http://www.w3.org/2000/svg">
<path d="M13 1L13.1103 1.25739M13.1103 1.25739L14.5 4.5L15.5 8V12L16.5 17.5L17 20L18.5 21.5L23.5 26.5L28 30.5L30.5 31L31.5 32.5L35 36.5L37 40.5L37.5 42.5L38.5 43.5L40.5 45L43 47.5L44 49.5V50.5L42 51.5L41.5 54L41 57.5L39.5 59C39.3333 59 38.5 58.7 36.5 57.5L33.5 55L28.5 54.5L27 52V51.5L26 52.5L24.5 53.5L22.5 54.5L20 54H19.5L18.5 55L17.5 56.5L16 58H14.5L13.5 56.5L10 55L9 53L8.5 48.5L6 45.5L5.5 43L8.5 38.5V36.5L6 35.5L2.5 36L1 34.5L3 31.5L7.5 29.5H9.5L10 29L8 27.5L7 25.5V19L8 18L9 16.5V14.5L11 10.5L13.5 7.5V6L13 3L13.1103 1.25739Z" stroke="#EE1E1E"/>
</svg>
