<svg width="96" height="115" viewBox="0 0 96 115" fill="none" xmlns="http://www.w3.org/2000/svg">
<path d="M93.5 111.5L91.5 114.5H86.5L85.5 113.5H80.5L79.5 114.5H77.5L77 113.5H76L75.5 112.5H72.5L70.5 110.5V109.5L69.5 108.5V107.5L68.5 106.5H66.5L64.5 108.5H49.5L47.5 111L43.5 106.5H37.5L36.5 107.5H30.5L28.5 106.5L27.5 105.5L26 104.5L23.5 103.5H20L13.5 96.5H9.5L8.5 94.5V93.5L10.5 91.5V89L10 88L9.5 86.5L9 86L10.5 84L13.5 83L14.5 81L13 78.5L11.5 77.5L8 77H6L4.5 75.5V74.5L3.5 73L6.5 70L6 67.5L2.5 63.5V61.5L5.5 59.5V57.5L4.5 56.5L3.5 51.5L0.5 48.5V40.5L2.5 39.5V35.5L1.5 34.5V31.5L0.5 30.5V27.5H1.5L2.5 26.5L4.5 24.5V23.5L5.5 22.5L6.5 21.5V19.5L7.5 18.5L8.5 17.5L9.5 16.5V15.5L10.5 14.5V13.5L11.5 12.5H12.5L15.5 9.5L16.5 8.5H17.5L18.5 7.5H19.5L20.5 6.5H21.5L24.5 3.5V2.5L25.5 0.5H29.5L32.5 3.5L33.5 5.5L34.5 6.5L35.5 7.5L37 6.5H38.5L39.5 5.5L42.5 6.5H43.5L45.5 8L47.5 9.5H49.5L51.5 11.5L52.5 13.5L54.5 15.5L55.5 18L56.5 19.5L57.5 20.5V21.5L58.5 22.5H59.5L60.5 23.5H62.5L63.5 24.5L65.5 26L66.5 24.5L68.5 22.5L69 21.5H72.5L73.5 22.5H74.5L75.5 23.5L76.5 22.5H77.5H78.5L79.5 23.5V28.5L78.5 29.5V31L79.5 32.5V36.5L80.5 37.5V38.5V40.5L79.5 41.5V43.5L80.5 44.5V45.5L81.5 46.5V48.5L79.5 50.5V51.5L80.5 52.5L81.5 53.5L82.5 54.5V55.5L83.5 56.5V63.5L80.5 66.5V71.5L79.5 73.5V77.5L77.5 79.5L76.5 81.5V84.5L77.5 85.5H79.5L81.5 83.5H82.5L83.5 85L84.5 87.5L85.5 88.5L86.5 89.5L87.5 91.5L88.5 92.5V96.5H89.5L90.5 97.5L91.5 98.5V99.5L90.5 100.5V104.5L93.5 107.5V108.5L94.5 109L95 110.5L93.5 111.5Z" stroke="#EE1E1E"/>
</svg>
