<svg width="73" height="78" viewBox="0 0 73 78" fill="none" xmlns="http://www.w3.org/2000/svg">
<path d="M31 8.5L31.1724 8.6724M31.1724 8.6724L32 9.5L32.5 10.5L33.5 13C33.5 14.2 33.8333 14.5 34 14.5L34.5 16.5V18L35.5 19.5V21L37 21.5L39 20L41 18L42 17V15.5L41 14L39.5 12V10.5C39.5 8.9 39.8333 9.16667 40 9.5L41 8C41.4 7.2 41.5 6.66667 41.5 6.5L42 4.5L43 2L43.5 1L45 0.5H46.5L47.5 1L48.5 2L50 2.5L51.5 3H58.5L60.5 3.5L61 5.5V12.5L60 13.5C59.2 13.9 59.3333 14 59.5 14L57.5 14.5L57 15L57.5 15.5H58L59 16.5L60 17.5H61.5H62.5L63.5 18.5V19.5L64.5 20.5V25.5L64 27.5L62.5 29L60.5 30.5L60 32.5L60.5 36L61 37.5L63 39L64 40L64.5 41.5L66 42.5L68 44L69.5 46L70.5 47.5L71 49L71.5 50.5H70.5L70 51V52L69.5 52.5L68.5 54V54.5L67.5 55.5L66.5 54.5V53.5L65 52H63.5V55.5L64 57L63 57.5H61L55.5 64H53.5L52 62L51.5 60.5L51 58.5H47.5L44.5 58L42 58.5L40 59L38 58.5C36.8 58.5 36.8333 58.1667 37 58L36 58.5H34.5L32 59V60L31.5 63L29.5 66V68L30.5 69.5V71V75.5L28 77L26 76C24.8 75.2 23.8333 75.3333 23.5 75.5H21L18.5 75L16.5 74.5L16 73.5V71.5L17.5 70.5L19.5 69.5H21.5L23 69L24 68V65.5L23 64.5L21.5 63.5H18.5L17.5 62.5L17 61.5L16.5 60.5V59.5L15.5 58.5V52.5L14.5 51.5V50.5C14.6667 50.1667 14.9 49.4 14.5 49C14.1 48.6 13.6667 48.1667 13.5 48V46.5L14 46V45.5L13.5 45L12.5 44.5V41.5L11.5 41C11.5 41 11.4 40.8 11 40L10 39.5L8.5 38C8.5 38 8.1 37.9 6.5 37.5L4.5 35L2.5 33V31.5L2 29.5V28L1.5 27V25.5L1 24V23V22L1.5 21L2 20H3L4 20.5L4.5 22V24.5L5 26L6.5 27.5H8.5L9.5 26.5L10.5 25L13 24.5L14.5 23.5L15.5 22L17 21.5L18.5 22L20 21.5L21.5 21L22 20V18.5C22 17.3 21.6667 17.3333 21.5 17.5V16C21.5 15.2 21.5 15 21.5 15L22 14H23L24.5 13.5L25.5 13L26 12V10.5V9L27.5 8H29L31.1724 8.6724Z" stroke="#EE1E1E"/>
</svg>
