<svg width="65" height="51" viewBox="0 0 65 51" fill="none" xmlns="http://www.w3.org/2000/svg">
<g filter="url(#filter0_d_64_2)">
<path d="M36.5 40V42.5M36.5 42.5V37.5L35.5 36.5V32L37 30.5H45.5L47 31.5L48.5 33L49.5 34.5L51 33L52.5 30.5L54 28V26.5L56 26L57 24.5L57.5 22.5L58.5 21.5V20L59.5 19L60 17.5L59 16.5L57.5 15L56 14.5L55 13.5H54L52.5 12.5V10.5L51.5 10L51 9L49 8.5H46L45.5 9.5L44 8.5L42.5 7L41 6L40.5 4.5L39.5 3.5L39 0.5H36.5L35 1V3L34.5 5L33.5 6.5L32.5 8.5V10L33.5 11.5V13.5V16.5L33 18L32 19H30.5L29 18L27 17.5H24.5H22L20 17L18.5 16.5L16.5 17.5L15.5 19L14.5 21L13 22.5L11.5 24L10 25.5L9 26.5L7.5 27.5L6 28.5L4.5 30.5V31.5L5.5 32.5L7 33.5L8 34.5L10 36L11.5 36.5H13.5H15H16L16.8013 37.5H18.5H19.5L21 39L22.5 41L23 41.5H32H33L34.5 42.5H36.5Z" stroke="#EE1E1E" shape-rendering="crispEdges"/>
</g>
<defs>
<filter id="filter0_d_64_2" x="0" y="0" width="64.5721" height="51" filterUnits="userSpaceOnUse" color-interpolation-filters="sRGB">
<feFlood flood-opacity="0" result="BackgroundImageFix"/>
<feColorMatrix in="SourceAlpha" type="matrix" values="0 0 0 0 0 0 0 0 0 0 0 0 0 0 0 0 0 0 127 0" result="hardAlpha"/>
<feOffset dy="4"/>
<feGaussianBlur stdDeviation="2"/>
<feComposite in2="hardAlpha" operator="out"/>
<feColorMatrix type="matrix" values="0 0 0 0 0 0 0 0 0 0 0 0 0 0 0 0 0 0 0.25 0"/>
<feBlend mode="normal" in2="BackgroundImageFix" result="effect1_dropShadow_64_2"/>
<feBlend mode="normal" in="SourceGraphic" in2="effect1_dropShadow_64_2" result="shape"/>
</filter>
</defs>
</svg>
