<svg width="68" height="68" viewBox="0 0 68 68" fill="none" xmlns="http://www.w3.org/2000/svg">
<path d="M59 37.5L58.5 38.5L57 39L55.5 41L55 42.5L53.5 44L51.5 46L50 47.5L47.5 49.5L45 51.5L44 53.5H42L40 54.5H33L32 55L31.5 55.5H30.5C30.1667 55.8333 29.2 56.8 28 58C26.8 59.2 26.5 59.5 26.5 59.5V61C26.5 61.6667 26.4 63.1 26 63.5L25 64L24 64.5V64L23.5 63.5L22.5 63L21.5 62.5H18L17.5 63.5L16 65L14.5 67L14 66.5C14 66.5 13.7 66.3 12.5 65.5C11.3 64.7 11 64.5 11 64.5H10L8.5 64L7 62.5L6.5 61.5L5 59.5L4 57L3 56L2 55.5L0.999939 53L0.5 52V51L0.499939 49.5C0.499939 49.3333 0.599939 48.9 0.999939 48.5C1.39994 48.1 1.16661 47.6667 0.999939 47.5V46.5L1.49994 45.5L2.49994 45L3.49994 44L4.49994 43.5L5.49994 42.5L6.99994 42L7.99994 41.5L8.49994 41V40.5C8.6666 40.5 9.09994 40.4 9.49994 40C9.89994 39.6 10.6666 40.1667 10.9999 40.5L11.4999 41.5L11.9999 42L12.9999 42.5H14.4999V40V38V36L14.9999 34.5V33.5V33L14.4999 32.5H13.4999L11.9999 32L10.9999 30.5L9.99994 29.5L9.49994 28.5V27.5L8.99994 26.5L9.99994 25.5H12.4999L13.4999 24.5L14.9999 24H16.4999H18.4999L20.4999 23.5L21.4999 23V22L22.4999 21V19.5V18L21.4999 17V15.5V13V11.5L20.9999 10.5V9.5L20.4999 9L19.9999 8.5L19.4999 8V7L19.9999 6.5L20.9999 6L21.4999 5.5H22.4999C22.4999 5.5 22.5999 5.3 22.9999 4.5C23.3999 3.7 23.4999 3.83333 23.4999 4L23.9999 3.5L24.4999 2.5H25.4999H26.9999L27.4999 3.5H28.4999H30.9999L32.4999 5L33.9999 6L36.4999 5.5L38.9999 6L40.9999 5.5L42.4999 5H43.4999H44.4999H45.9999L46.9999 4L47.4999 3L47.9999 2.5L48.4999 1.5L49.4999 1L50.4999 1.5L50.9999 2L51.9999 2.5L52.9999 3.5L53.9999 4L54.4999 5L55.4999 5.5V7V8.5C55.4999 8.5 55.6999 8.6 56.4999 9C57.2999 9.4 56.8333 10.1667 56.4999 10.5V11.5C56.4999 11.8333 56.6999 12.6 57.4999 13C58.2999 13.4 57.8333 14.1667 57.4999 14.5V15.5L58.4999 16.5V18.5V19.5C58.4999 19.6667 58.4999 20.2 58.4999 21C58.4999 21.8 58.4999 22.3333 58.4999 22.5L59.4999 23.5V24.5L59.9999 25.5L60.4999 26L60.9999 27L61.4999 27.5H62.4999H64H64.5L65.5 28L66 28.5L67 29.5C67 29.8333 67 30.8 67 32L66 33C66 33 65 33.3333 64.5 33.5H63L62 34L60 34.5L59 36" stroke="#EE1E1E"/>
</svg>
