<svg width="71" height="95" viewBox="0 0 71 95" fill="none" xmlns="http://www.w3.org/2000/svg">
<path d="M7 53.5L1 50L1.5 48.5L2.5 47V43.5L3 40.5L3.5 37.5L1.5 35V32.5L4.5 29V27L5.5 23.5H8L10 22L9.5 19L8 16L6.5 13L5 10L5.5 8L7.5 5L12.5 1H13.5L17.5 3L22 4L25 6L29 7.5L31.5 9.5L32 12L40 22.5L45.5 26L46 27.5L51 33L51.5 36.5L58 43V45.5L60 49V51L58.5 54L56.5 56.5L55.5 58.2721L60 62.5L63.5 63L68.5 69L70 73L70.5 75.5C70.5 75.8333 70.3 76.9 69.5 78.5V81.5L62.5 89.5H59L55.5 92L50 94H43.5L39.5 92.5L37.5 91L36 88L35 85.5L32.5 83L30 80L28.5 77L27.5 75L26 73L22 67L20.5 64L17.5 58L15.5 56.5L10.5 55L7 53.5Z" stroke="#EE1E1E"/>
</svg>
