<svg width="39" height="43" viewBox="0 0 39 43" fill="none" xmlns="http://www.w3.org/2000/svg">
<path d="M23.5 39.5L21.5 41.5L20.5 39.5H17.5L15.5 40H14.5L13 39L11.5 36.5L9.5 35.5L6.5 34L5.5 31.5L4 27.5L2.5 25V18.5L1.5 16L3.5 13.5H5L6 12.5L4.5 9.5V8.5L5.5 7V6L6.5 5.5V3.5L7.5 1.5L8.5 0.5H11L12.5 1.5L15 4.5H17.5L20.5 7.5H22.5L24.5 8.5L25 17.5L26 18.5L28 19.5H29.5L32 20.5L33.5 22.5L35.5 24L36 26.5L37.5 27.5V28.5L38.5 29.5V30.5L37 31.5L33.5 34.5L32.5 35.5L30.5 36.5L28.5 37.5L26.5 38.5H25L23.5 39.5Z" stroke="#EE1E1E"/>
</svg>
