<svg width="59" height="82" viewBox="0 0 59 82" fill="none" xmlns="http://www.w3.org/2000/svg">
<path d="M57.5 62.5L56.5 63.5L55 64.5L53 66.5L45 78L43.5 79.5L42.5 80.5L41 81.5H40L39.5 81L39 80L38.5 79L37.5 77.5V76.5L37 75.5L35.5 74L33.5 73.5L28 76.5H26L24.5 75.5L23 74.5L22 73L23.5 72L26 71L27 70.5L28 69L27 67.5L25 65.5L23 63.5L21.5 62L19.5 60V57.5L20.5 55.5L19.5 53.5L18 53L16.5 52.5L14 51.5L10.5 49.5V47.5L11.5 47L11 41.5L7.5 36.5V32L5.5 30.5L5 29.5L3.5 27L4 20.5L2.5 18V11L1.5 9.5L2.5 8.5L4.5 7.5L7.5 6.5L8.5 7.5L10.5 9.5L12 11.5L13.5 13.5L15.5 14.5L17.5 15.5H18.5L20 14.5L21.5 14L22.5 12.5L23.5 11V8.5L26.5 5.5V4.5L27.5 3.5L29.5 1.5H31.5L33.5 0.5H39L40.5 1.5L41.5 2.5L51.5 13.5L53.5 14.5L55 15.5L55.5 23L55 29.5L53.5 30.5V37.5L52.5 39.5L53 42.5L53.5 45.5L54.5 46.5L55.5 48.5L56.5 50.5L57.5 52.5L58.5 54.5V61.5L57.5 62.5Z" stroke="#EE1E1E"/>
</svg>
