<svg width="72" height="57" viewBox="0 0 72 57" fill="none" xmlns="http://www.w3.org/2000/svg">
<path d="M9.5 42.5L7 41.5V41L7.5 40L6 37L3.5 34L1 30L1.5 27L3.5 24L9 19L11 18.5L14 17.5L16.5 16.5L19 14.5H20.5L22 15.5H25L26.5 14L32 12L36.5 7.5L38 8L40 11L46.5 10.5L49 8L49.5 3.5L51 1.5L52.5 0.5H53.5L56 1.5L63 8.5V9.5L62.5 13V15.5L63.5 17.5L65.5 19L62.5 19.5L58.5 21.5L56.5 24.5L58.5 26L62 25.5L64.5 26.5C64.5 26.5 64.3333 27.8333 64.5 28.5L62.5 32L61.5 33.5L62 35.5L64.5 38.5L65 43L66 45L69.5 46.5L70.5 48.5L69.5 50L67.5 55L65.5 56H64L59.5 53.5L55 50L53 47V46L53.5 44L53 42.5L51.5 41.5L48 40L45.5 39L44.5 38.5L43.5 39L42.5 40.5H41.5L39.5 39L38.5 38L37 38.5L36 39L35 39.5L33.5 39L33 38H32L31 38.5L29.5 40.5H29L28.5 40L27 38.5H24.5H22.5L21 39.5L19 40.5H18L17 39H16L15 40L13.5 40.5L11.5 42L9.5 42.5Z" stroke="#EE1E1E"/>
</svg>
