<svg width="90" height="111" viewBox="0 0 90 111" fill="none" xmlns="http://www.w3.org/2000/svg">
<rect y="41" width="90" height="70" fill="#D9D9D9"/>
<rect x="9" y="62" width="10" height="10" fill="black"/>
<rect x="9" y="96" width="10" height="10" fill="black"/>
<rect x="9" y="79" width="10" height="10" fill="black"/>
<rect x="9" y="45" width="10" height="10" fill="black"/>
<rect x="73" y="62" width="10" height="10" fill="black"/>
<rect x="73" y="96" width="10" height="10" fill="black"/>
<rect x="73" y="79" width="10" height="10" fill="black"/>
<rect x="73" y="45" width="10" height="10" fill="black"/>
<rect x="57" y="62" width="10" height="10" fill="black"/>
<rect x="57" y="96" width="10" height="10" fill="black"/>
<rect x="57" y="79" width="10" height="10" fill="black"/>
<rect x="57" y="45" width="10" height="10" fill="black"/>
<rect x="41" y="62" width="10" height="10" fill="black"/>
<rect x="41" y="96" width="10" height="10" fill="black"/>
<rect x="41" y="79" width="10" height="10" fill="black"/>
<rect x="41" y="45" width="10" height="10" fill="black"/>
<rect x="25" y="62" width="10" height="10" fill="black"/>
<rect x="25" y="96" width="10" height="10" fill="black"/>
<rect x="25" y="79" width="10" height="10" fill="black"/>
<rect x="25" y="45" width="10" height="10" fill="black"/>
<path d="M9 16H24V41H9V16Z" fill="#93C4B4"/>
<rect x="68" y="16" width="15" height="25" fill="#93C4B4"/>
<path d="M14 11V14.5H17H21.5L24.5 11V7.5L27.5 4.5L26 1L21.5 2H19.5L17 4.5L16 7.5L14 11Z" fill="#BAD139" stroke="#BAD139"/>
<path d="M73 11V14.5H76H80.5L83.5 11V7.5L86.5 4.5L85 1L80.5 2H78.5L76 4.5L75 7.5L73 11Z" fill="#BAD139" stroke="#BAD139"/>
</svg>
