<svg width="41" height="48" viewBox="0 0 41 48" fill="none" xmlns="http://www.w3.org/2000/svg">
<path d="M39.5 30.5L40.5 32.5V33.5L39 35.5H38.5L37.5 37V40.5L36.5 41.5H30.5L28.5 43.5L27 41.5L25 40.5L24.5 41.5L23.5 42.5H22.5L21.5 43.5H19.5L18 44.5H9.5L7 46.5L6 46L3.5 44L3 42.5L4.5 40.5L6.5 37.5L7 35L9 33L9.5 31L5.5 26.5L4 26L1.5 23V21.5L0.5 20V18.5L2 17.5L5 20H8L10.5 18V15.5L9.5 13.5V7.5L12.5 5.5V3.5L13.5 2.5L14.5 1.5L15.5 2.5H17C17.8333 3 19.5 4.1 19.5 4.5C19.5 4.9 21.5 4.66667 22.5 4.5L23.5 6L25.5 9L31.5 15.5L35.5 16.5L38.5 20.5L39.5 22.5L38.5 25.5L39.5 30.5Z" stroke="#EE1E1E"/>
</svg>
