<svg width="65" height="81" viewBox="0 0 65 81" fill="none" xmlns="http://www.w3.org/2000/svg">
<path d="M14.5 75.5H11.5V74L10 71.5L9 71L7 69V68L9.5 66V65V62.5L10 58L9.5 54.5L9 52.5L7.5 51L6.5 48.5L6 46V42.5L5 41.5L4 40L3 38L0.5 33V29H1H2L3.5 28V27L6 22L7 20L7.5 18.5L6.5 17.5L5.5 15.5V14V12V10L6 8L5.5 7L4.5 5.5L5 5L8 3.5H10.5L12.5 4H15.5L18.5 5.5H20L21.5 4.5L24.5 2.5H26L28.5 1L32 3L34.5 7L39 7.5L43.5 10.5L47.5 12.5L49 15H52L56 17L57.5 19.5L58 22.5L59 24L60.5 26L63 27.5L64 29C64.1667 29.3333 64.5 30.3 64.5 31.5V32.5C64.3333 32.6667 63.7 33 62.5 33L61.5 31.5H60H59L57.5 32C57.5 31.8333 57 31.8 55 33C53 34.2 53.1667 33.8333 53.5 33.5C53.1667 33.6667 52.1 34.1 50.5 34.5L48.5 37L46 38.5C44.4 39.7 45 40 45.5 40L46 41.5L47.5 43L49 44L50 46L51 47.5L52.5 49.5L53 51L52 52L48.5 54.5L47.5 55L47 56C46.8333 56.1667 46.5 56.6 46.5 57C46.5 57.4 46.8333 58.1667 47 58.5L47.5 60L48 61V62L47 62.5L46 63H44.5L42 63.5L40 64.5C39.6667 64.6667 38.7 65.2 37.5 66C36.3 66.8 35.3333 66.6667 35 66.5L33 67L31.5 68L31 69L30 70C29.5 70.1667 28.3 70.5 27.5 70.5C26.7 70.5 26.5 69.8333 26.5 69.5L25.5 68L24 67C23.6667 66.8333 22.8 66.7 22 67.5C21.2 68.3 20.6667 68.5 20.5 68.5L19 69.5C18.8333 69.6667 18.5 70.3 18.5 71.5C18.5 72.7 18.8333 73.3333 19 73.5L20.5 75V76.5C20.1667 76.6667 19.1 77.6 17.5 80H16.5L14.5 75.5Z" stroke="#EE1E1E"/>
</svg>
