<svg width="76" height="69" viewBox="0 0 76 69" fill="none" xmlns="http://www.w3.org/2000/svg">
<path d="M5.5 26.5L1.5 28L4 32C4.5 32.3333 6 33.3 8 34.5C10 35.7 10.5 35.6667 10.5 35.5C11 35.8333 12.2 36.8 13 38C13.8 39.2 14 40.5 14 41V43.5L13.5 45.5L12.5 47.5C13 48 14.2 49.5 15 51.5C15.8 53.5 15.6667 53.6667 15.5 53.5L15 55.5L14.5 58.5L14 62V65.5C14 65.6667 14.3 66.4 15.5 68L19 67.5L21 67L23.5 65L24.5 63.5V60.5L26.5 59.5L29.5 58.5H31C31.1667 58.5 31.6 58.8 32 60C32.4 61.2 32.5 61.1667 32.5 61L34 61.5C34.3333 61.5 35.3 61.7 36.5 62.5H39.5L40.5 61.5H42.5L44 62.5H45.5V58L45 56.5L45.5 55L46.5 53.5L47 52L48.5 49.5L50 49L52.5 49.5L54.5 49L56 47.5L57 45.5H58.5L60 46.5L60.5 47.5L62 48.5L62.5 48L64 46.5L65.5 44.5L67.5 44L70 43.5C70.3333 43.5 71.8 43.2 75 42V40.5V39.5L74.5 38.5L71.5 36L67.5 32.5L65 30L64.5 28.5V25.5L64 24.5L62.5 24L60.5 23L58 21.5L55 18L53.5 17.5L52.5 17H51L50.5 16L49 14.5L48.5 14L47.5 13.5V10.5L48.5 9.5V7.5L49.5 6.5V2L49 1.5L48.5 0.5H46L45 1.5H36.5L35 2L32.5 5L30.5 7L30 9.5L29.5 11.5L28.5 14.5L28 17L25.5 19.5L23.5 20.5L21.5 21.5H19H17.5L15 21L13 20.5L11.5 22L10.5 23.5C9.5 25 10.5 23.5 9 25L7 25.5L5.5 26.5Z" stroke="#EE1E1E"/>
</svg>
