<svg width="85" height="66" viewBox="0 0 85 66" fill="none" xmlns="http://www.w3.org/2000/svg">
<path d="M3.5 46.5V44.5L4 42.5L4.5 40.5V37.5V35.5L4 33.5C3.6 31.9 3.5 32.1667 3.5 32.5L2.5 30.5L1 28.5L0.5 27V25.5V24.5L1.5 23.5L2 23L4.5 23.5C5.7 23.5 6.66667 23.1667 7 23L8 21.5L9 20L11 18L12.5 16.5H14.5L16.5 15.5L18 14.5C18.8 13.7 18.6667 13.1667 18.5 13L19 11.5L18.5 10V9L17.5 8L16.5 7.5C15.7 7.1 16.1667 6.33333 16.5 6V5.5C16.5 4.7 16.8333 4.5 17 4.5L17.5 3L18.5 2L19.5 1L21 0.5H22.5L23 2L24.5 5H25.5L27 2.5L27.5 2L29 1.5L31 2.5L33.5 3.5L36 5.5L38.5 6.5L40.5 7L41.5 8.5L43 10L44 12C44.4 12.8 45.1667 13 45.5 13C46.3 13.4 46.5 12.8333 46.5 12.5L47 11.5L48.5 11H50.5L52 11.5L53 13L53.5 14.5L53 17C52.6 18.2 52.5 18.1667 52.5 18L51.5 18.5V20V24.5L50.5 25.5V27L50 28L49 29L48.5 29.5C48.1 29.9 48.6667 30.3333 49 30.5L50 31.5L51 33V33.5C50.6667 33.6667 49.9 34.2 49.5 35C49.1 35.8 49.3333 36.6667 49.5 37L51 38.5L53.5 38L55 39.5L57 41.5L59 42H61.5L63.5 43L64.5 44.5L66.5 45.5L68.5 46.5L70 47H71.5L72.5 48.5L73.5 50L74.5 51.5L76 52.5L77 53.5L79 54L81 54.5L82.5 55L83 56.5L84 58.5L84.5 60.5V62.5L84 64V65L83.5 65.5H81L79 65H77L73 62H67L62 61.5H61L57 60H56L55 62V63V63.5H52L50 64L49.5 65L49 65.5H48L47 65L44.5 64L43.5 63L42.5 61L42 59L41.5 56L40.5 54.5L38 53.5L37 53L36 52.5H35L30 55.5L28 54.5H27L26 54L25.5 53V52L25 51V50V48.5L24.5 47.5L22.5 46.5L19.5 47.5H18L17 47C16.6667 46.8333 15.8 46.8 15 48L14.5 49.5L13.5 50.5L12 51.5L11 52L9 51.5L7.5 51L6 50.5L4.5 49.5L4 48L3.5 46.5Z" stroke="#EE1E1E"/>
</svg>
