<svg width="42" height="69" viewBox="0 0 42 69" fill="none" xmlns="http://www.w3.org/2000/svg">
<path d="M17.5 67.5L16 68L13 66L12 65L10 63.5H8.5L7 63L5.5 62L5 61L4.5 52.5L2.5 51.5V48.5L3 47.5L4 46L4.5 45V43.5L3.5 42.5L4 42V40L4.5 38.5V37.5V36.5L3.5 33.5L2.5 32.5V32L1.5 30.5L1.5 28.5L0.5 27.5V24.5L1.5 23.5H2.5V20.5L1.5 19.5V16.5L2.5 15.5V13.5L3.5 12.5H4.5L5.5 11.5C5.5 11.1667 5.7 10.5 6.5 10.5L7.5 9.5H9C9.33333 9.33333 10.3 8.7 11.5 7.5V4.5L10.5 3.5L12 2.5L13.5 0.5H14.5L15.5 1.5H16.5L17.5 2L18.5 2.5L20.5 4L21.5 5L22 5.5H23.5L25 5H26L27 5.5L27.5 6V6.5L28 7.5L28.5 8.5L29.5 9.5H34H35L36 10L36.5 10.5V12C36.5 12.8 36.8333 13 37 13L38 13.5C38.8 13.9 38.6667 14.3333 38.5 14.5L39 15.5V16V17L39.5 17.5L40.5 18V19V20V21L40 21.5L39.5 22.5V23.5L40 25L40.5 26.5L41 27.5L41.5 28V29V30L41 30.5L40.5 31.5L40 32.5V33.5V35V36V37V38L39.5 39L39 39.5H38.5L38 40L37.5 40.5H36.5H35.5H34.5L33.5 40L32.5 39.5H30.5H28.5C26.9 39.5 27.1667 39.8333 27.5 40L27 41L25.5 42L24.5 43L24 43.5L23.5 44.5L23 45.5L21.5 47L21 48L20.5 49V50L20 50.5C19.6 50.9 19.5 51.3333 19.5 51.5L19 52.5L18.5 53V54C18.5 54.4 18.8333 54.5 19 54.5L20.5 56L22.5 58.5V60V61.5L22 62.5L21 64L20.5 65.5L20 66.5L19 67L17.5 67.5Z" stroke="#EE1E1E"/>
</svg>
