<svg width="86" height="108" viewBox="0 0 86 108" fill="none" xmlns="http://www.w3.org/2000/svg">
<path d="M18.5 11.5L23 1H26L28.5 2L31.5 2.5L34.5 3C35.1667 3.5 36.6 5 37 7C37.4 9 37.1667 9.83333 37 10C37 10.8333 37.2 12.7 38 13.5C38.8 14.3 39.6667 13.8333 40 13.5L43 14L48.5 19.5L52 23.5L55 27L57.5 29C58 29.5 59.1 30.8 59.5 32C60 33.5 60 33 60.5 36C60.9 38.4 61 38 61 37.5L62.5 38L63.5 39.5L64 42L65.5 44L67.5 46L70.5 48L72.5 49.5L73.5 51C73.5 51.5 73.4 52.9 73 54.5C72.6 56.1 72.8333 56.5 73 56.5L75.5 59L80 62.5L84 65.5V67L83.5 69.5L82 71L82.5 72.5L85 74.5V76.5L83.5 78V79L82.5 88.5L82 90L81.5 91.5C81.3333 92 80.1 93.7 76.5 96.5C74 98.5 75.5 97 73.5 97.5H71.5L70 96.5L68 96L66.5 97L59.5 99.5L55 100.5C54.5 100.5 53.2 100.6 52 101C50.8 101.4 49.8333 101.833 49.5 102C49.1667 102.333 48.1 103.1 46.5 103.5C44.9 103.9 44.1667 103.667 44 103.5L43 103L42 102.5H39.5C38.3 102.5 38 103.167 38 103.5C37.1667 103.667 35.5 104.1 35.5 104.5C35.5 104.9 35.1667 104.333 35 104C34.8333 103.833 34.2 103.4 33 103L32.5 103.5H30L28 104H26.5L25 105L24.5 106V107.5H23.5V101.5L24.5 101C24.5 100.5 24.3 99.5 23.5 99.5V97.5C23.1667 97.3333 22.5 96.7 22.5 95.5C22.5 94.3 21.8333 94.3333 21.5 94.5V90.5H20.5C20.1667 90.1667 19.3 89.5 18.5 89.5C17.7 89.5 17.5 88.8333 17.5 88.5L16.5 87.5L14.5 87V84.5L15.5 83L11.5 78.5V77.5L12.5 76.5L13 75L12.5 74L11 73L6.5 67.5C6.5 67.1667 6.3 66.3 5.5 65.5L7.5 62.5H8.5L9.5 59.5H13.5V57.5L10.5 54.5H8.5V51.5L5.5 48.5H4.5L2.5 46.5V44.5L5.5 41.5V37.5L2.5 35.5L3.5 34.5L2.5 33.5V32.5L1.5 30L2.5 26L5 22L7 18.5L6.5 17L5 15.5L4.5 13L5.5 11H7L8.5 13L10 14.5L11.5 14L13.5 13H16.5L18.5 11.5Z" stroke="#EE1E1E"/>
</svg>
