<svg width="65" height="77" viewBox="0 0 65 77" fill="none" xmlns="http://www.w3.org/2000/svg">
<path d="M3.5 29.5L1 23L5 19H10.5L12 16.5L16 12H17.5L22.5 14H29L32 13L33.5 12.5L38 9.5H41.5L43.5 7.5L47 3.5L48.5 1.5L49.5 2L51.5 4L56 5L59 8.5L63.5 15V17.5V23.5L62.5 26.5L63 29.5V32L60.5 37L60 39.5L62.5 41L63.5 42.5L61.5 45L60.5 47L61 51L61.5 55.5L60 57H58.5L57.5 57.5V59.5C57.5 60 57.3 61.4 56.5 63L54.5 63.5H52.5L51.5 62.5H49L47.5 63L46 66L41 72.5L37.5 76.5H35.5L32 72.5V71.5L31 69.5L25.5 64.5L25 63L23 58.5L18.5 53L15.5 52L5 42L4.5 40L3.5 34V29.5Z" stroke="#EE1E1E"/>
</svg>
