<svg width="90" height="88" viewBox="0 0 90 88" fill="none" xmlns="http://www.w3.org/2000/svg">
<path d="M22 34C21.2 34 21.3333 34 21.5 34V33C21.5 32.6667 21.5 31.9 21.5 31.5C21.5 31.1 21.1667 31 21 31L19.5 30L18.5 29L17.5 28L17 26.5L16 25.5L14 25L13 24.5L9.5 21.5V15.5L8.5 14.5H7C5.8 14.5 5.16667 14.5 5 14.5C4.83333 14.6667 4.1 14.4 2.5 12C2.1 10.8 1.66667 9.5 1.5 9L2.5 7V5.5L3.5 5L6.5 6.5L8 7L10 7.5L10.5 7L12 6.5L13.5 4.5C13.9 3.7 14 3.16667 14 3L14.5 2L15.5 1.5L16 2L17 2.5H18.5L20 2L21.5 1.5L23.5 2.5L24 4V5.5L24.5 7C24.3333 7.33333 24.2 8.2 25 9C25.8 9.8 26.6667 9.66667 27 9.5L29 10.5L30.5 9.5L32 8.5C32.6667 8.16667 34.2 7.5 35 7.5C35.8 7.5 36.3333 8.16667 36.5 8.5L39.5 9.5L40.5 11C40.6667 11.5 41 12.8 41 14C41 15.2 41.3333 16.1667 41.5 16.5L42.5 18L44.5 19.5L47 20.5C48.6 20.5 49 19.5 49 19L51 18.5C51.3333 18.5 52.3 18.5 53.5 18.5C54.7 18.5 54.3333 17.8333 54 17.5C54 17.1667 54.1 16.3 54.5 15.5C54.9 14.7 55.6667 14.8333 56 15L58 15.5L60.5 16.5L66 17H68C68.5 17 69.8 17 71 17C72.2 17 72.8333 17.6667 73 18L74.5 19L76.5 20H78L80 20.5L81 21L82.5 22L83.5 24L84.5 26V28L84 29.5L83.5 31.5L83 35.5V40.5L83.5 41.5L85 42H87C87.5 42.1667 88.6 42.7 89 43.5C89.4 44.3 89.1667 44.5 89 44.5L88.5 45.5H87.5L86.5 46L84 53L82.5 54.5V57L85 60.5V62L80 66.5L78.5 66C78.5 65.6667 78.4 64.8 78 64C77.6 63.2 77.5 63 77.5 63V61L77 59.5L76.5 58L76 57L75.5 55.5L74.5 54L74 53.5L72 53H70.5L69 54V55V56.5L68.5 57.5L67.5 58.5L66 59H65L64.5 59.5V61V62.5L65 63.5C65 63.8333 64.9 64.7 64.5 65.5L64 66L61.5 67L60.5 66.5H59.5L58.5 67L57.5 68L56.5 69L55 69.5L53.5 70L52.5 71L51.5 72L50.5 72.5L49.5 72L48.5 71.5L48 70.5L47.5 69V67V66.5L47 65.5L46 65H45L44.5 66L44 67V69L44.5 70.5C44.5 71 44.6 72.2 45 73V74V75L45.5 76.5V78L47 79.5L48.5 81C48.6667 81.3333 48.9 82.2 48.5 83L47.5 84C47.3333 84.3333 46.8 85.2 46 86H45.5H42L39 87L36.5 86.5L34 87L32.5 86L31 84.5H27.5L27 83.5H26.5H24.5L23.5 84.5V82L22.5 80V78L23 76.5L23.5 76L25 75.5L27 75L28.5 74L29.5 73L30.5 72V70L30 68.5L30.5 67L31.5 66L33.5 65C33.8333 64.8333 34.5 64.3 34.5 63.5C34.5 62.7 33.8333 62.1667 33.5 62L32 61L30.5 60L29.5 59L29 58V57L29.5 56.5H32.5L34 55V53.5V51.5L33.5 50.5H32.5L31 50L29.5 49V48L30 47.5L30.5 47L31 46L32 45.5L32.5 45V44L30.5 41L29 38.5L27.5 35L26 33.5H25L24 34L23 34.5H21.5" stroke="#EE1E1E"/>
</svg>
