<svg width="130" height="61" viewBox="0 0 130 61" fill="none" xmlns="http://www.w3.org/2000/svg">
<path d="M10 17.5V15.5L12 14L17 12C17.6667 11.6667 19.6 11.1 22 11.5C24.4 11.9 25.3333 11.6667 25.5 11.5L30 9.5L32.5 8.5L36 4.5L38.5 1.5L42 1L49.5 4L54 8L60 10L68.5 17H69L73.5 15L76.5 16L81.5 18.5H87.5L99 19L100 17.5L101 15L104.5 12L107.5 9L114 7L116.5 8.5L119.5 7.5L122.5 10L126.5 16L128.5 16.5L125.5 24.5L121 29.5H117L110.5 32L107.5 30.5C107.167 30.6667 106.4 31.3 106 32.5C105.6 33.7 104.5 35 104 35.5L100.5 37L99 38.5L98 39.5L96 38.5H95L93 40.5H92L89.5 37L87.5 36.5C87.1667 36.5 85.9 37 83.5 39H82.5L79.5 36.5L77.5 36L75.5 37L74.5 41.5L69.5 39.5H66.5L62 39L59.5 37.5H53L50 39L45.5 40L42.5 45H38L36.5 49V51.5L28.5 60L25 57.5L23.5 55L13 55.5L10 55V52L5 47.5L7 44L6.5 41L3 38L2 33.5L1 31.5L2 29.5L4 28L5 26L5.5 22.5L10 17.5Z" stroke="#EE1E1E"/>
</svg>
