<svg width="65" height="64" viewBox="0 0 65 64" fill="none" xmlns="http://www.w3.org/2000/svg">
<path d="M63.5 43.5L62.5 45.5V46L61.5 47.5H60H56L55 48.5H53L52 49L49.5 51.5V52.5C48.5 53.5 46.5 55.6 46.5 56V58L45 61L42.5 62L40.5 62.5L39.5 62L36 60L30.5 53.5L27 55L24.5 56.5L23 57L21.5 56V54.5L20.5 53V50L19.5 46.5L17.5 46L15.5 38.5L16.5 35.5L12.5 29.5L8 28L4.5 24L3 22.5L2 21L0.5 18.5V16.5L1.5 14.5L3.5 13.5L4.5 12.5H7.5L8.5 11.5L9.5 10.5V9.5L10.5 8.5V7.5L13.5 4.5H14.5H16.5V5.5L17 6.5H18.5H20H21.5L22.5 7.5H23.5L27 8L27.5 9.5L28.5 10.5H31.5L32 10L34 9L35 8.5H36.5L37.5 7.5H38.5L39.5 6.5V4.5C39.5 4.1 40.1667 4.33333 40.5 4.5H41.5L42.5 3.5L43.5 2.5L44 1.5L45 0.5H46L47 1.5H48L49 2.5L49.5 3.5V4V7.5L48.5 8.5V9.5L47.5 10.5V11.5L48.5 12.5L49.5 14.5L48.5 15.5H46.5L45.5 16.5L44.5 18V19L45.5 20.5V27.5L46.5 28.5L47.5 30.5L48.5 33.5L49.5 35.5L52.5 37.5L55 38.5L56.5 41.5L58 42.5C58.5 42.3333 59.6 41.9 60 41.5C60.4 41.1 62.8333 41.3333 64 41.5L63.5 43.5Z" stroke="#EE1E1E"/>
</svg>
