<svg width="87" height="153" viewBox="0 0 87 153" fill="none" xmlns="http://www.w3.org/2000/svg">
<path d="M33.5 136.5H22.5L21.5 135.5H18.5V135L17.5 133.5L16.5 132.5V131.5L15.5 131V127.5L15 126.5H13.5L12.5 125.5H7.5L6.5 124.5H4.5L3 123.5L3.5 117.5L4.5 116.5H5.5L6.5 115.5L9.5 116.5H10.5L11.5 117.5H15L15.5 112.5L10.5 107.5H0.5V105.5L1.5 104.5V103.5L2.5 102.5H3.5L4.5 101.5H6.5L9 99.5L9.5 96.5L13.5 92.5H15.5V90.5L13.5 89.5L12.5 88.5H10.5L9.5 87.5V84.5L10.5 83.5V81.5L11.5 80.5V74.5L9.5 72.5V71.5L9 68L10.5 66.5H12L13.5 65.5H14.5L15.5 63.5V58L14.5 56.5V54.5L13.5 53.5V50.5L14.5 49.5H22.5L24.5 51.5H25.5L27.5 49.5H28.5V45.5H25.5L23.5 43.5V40.5L25.5 36.5L27.5 35.5V24.5L29.5 22.5V20.5L30.5 19V14.5L29.5 13.5V10.5L30.5 9.5V7L31.5 5.5H34.5L35.5 6.5L36.5 5.5V1.5L34.5 0.5H35.5H39.5L45.5 6.5H54.5L55.5 7.5H60.5L61.5 8.5H64.5L67.5 10.5V14.5L64.5 17.5V19.5L66.5 21.5H67.5L70.5 24.5V27.5H72.5L73.5 28.5L75.5 30.5V32.5H71.5L71 33.5L70.5 35.5H69.5L67.5 38.5L68.5 39.5V40.5L69.5 41.5L73.5 46.5L74.5 47L75.5 48.5C75.3333 48.5 74.9 48.7 74.5 49.5C74.1 50.3 73.6667 50.5 73.5 50.5V51.5L76.5 54.5L77.5 55.5V56.5L76.5 57.5V59.5L77 60.5H78.5L79.5 61.5L80.5 62.5H81.5L82.5 63.5H83.5V67.5L84.5 68.5V70L85.5 70.5V72.5H86.5V74L85.5 74.5V80.5L84.5 81.5H82.5V82.5L79.5 84.5V86.5H81.5L82.5 87.5H83.5L86.5 90.5V91.5L85.5 92.5L84.5 93.5L79.5 100.5V101.5L78.5 102.5L77.5 103.5V107.5L76.5 108.5L75.5 109V110.5L74.5 111.5V113.5L73.5 114.5V116.5L71.5 118.5V121.5L72.5 122.5V123.5L75.5 126.5V128.5L74.5 129.5L73.5 130.5L71.5 131.5L70.5 132.5H69.5L65.5 136.5L64.5 137.5V138.5L63.5 139.5V140.5L59.5 145.5L58.5 147.5L53.5 152.5H49.5L48.5 151.5L45.5 148.5V146.5L44.5 145.5L43.5 144.5L42.5 143.5V142.5L41.5 141.5L40.5 139.5L39.5 138.5H35.5L34.5 137.5L33.5 136.5Z" stroke="#EE1E1E"/>
</svg>
