<svg width="90" height="99" viewBox="0 0 90 99" fill="none" xmlns="http://www.w3.org/2000/svg">
<path d="M77.5 96.5L79.5 97.5L81.5 94.5L83.5 91.5L84.5 89.5L87 88.5L88.5 86.5L87.5 82.5L87 74.5L84.5 71.5V68.5L85.5 67.5V63.5L84.5 61.5L82.5 59.5L81 57.5L78.5 55.5L76.5 54.5L76 49.5L74.5 46.5L73.5 43.5L70.5 40.5L69.5 37.5L68 35.5L66.5 33.5L63.5 29.5L61.5 26.5V23.5L60 22.5H56L53 23.5L50 21.5H46.5L45 19.5L42.5 18.5L41 17.5L39.5 16L37.5 13.5L35.5 10.5L33.5 8.5L30.5 6.5L28.5 6V3.5L27 2.5H23L21 3.5L19 3L16.5 2.5L15.5 1.5L10 2L5.5 4L4.5 6V9.5L6.5 11.5L7.5 13.5L6.5 16.5L5.5 19L6 23.5L4.5 27L3.5 28.5L2.5 30.5L1.5 32.5L2.5 34L3.5 35.5L4 39L4.5 40V41L5.5 42.5V44.5L6.5 45.5L7.5 47.5L8.5 48.5L9.5 50.5L10 51.5L16.5 58.5L17.5 60L18.5 61.5L19.5 62.5L20.5 63.5V64.5L21.5 66L22.5 66.5L26.5 72L27.5 71.5L28.5 72.5L29.5 71.5V70.5L31.5 69.5L32.5 70.5L33.5 71.5H37.5L39.5 72.5L41.5 73.5L42.5 76L43.5 78.5L45.5 79.5H49.5L51.5 80.5L59.5 85.5L61.5 86.5L66.5 87.5L69.5 91L73.5 95.5L75.5 96.5H77.5Z" stroke="#EE1E1E"/>
</svg>
