<svg width="65" height="40" viewBox="0 0 65 40" fill="none" xmlns="http://www.w3.org/2000/svg">
<path d="M0.5 36.5V36V33.5L2.5 31.5V30.5L0.5 28.5V24.5L1.5 23.5V21.5L2.5 20.5V19.5V16L4.5 14.5V12L5.5 12.5L6.5 11.5H8L9 10.5H10.5L12.5 12.5H17.5L18.5 11.5H19.5L23.5 7.5H25.5L28.5 4.5H33.5L37.5 8.5H38.5L39.5 8L40.5 7L41 5.5L42 4L44 3L45.5 2.5L46.5 3L47 4L47.5 6L48 5L48.5 3L49.5 2L51 1.5L53 2L55 3L56.5 4.5L58 6L57 8V11L58 13.5L60 16.5L60.5 18.5L61 20L60.5 21.5L59.5 23.5L60 25.5L62 27.5L64 30.5L64.5 32V33.5L63 34.5L61.5 35.5C61.3333 35.8333 60.8 36.5 60 36.5H58.5L57.5 36L56.5 35.5C56.1667 35.3333 55 35 53 35C51.4 35 50.6667 34.6667 50.5 34.5H47.5L45 36L43.5 36.5L42 35.5L40.5 33.5L39 33C38.3333 33.3333 36.8 34 36 34C35.2 34 34.3333 33 34 32.5L32 31.5H29L27 32.5L25.5 33C24.3 33.4 24 33.1667 24 33H22L18 37C17.6 37.4 15.5 37.5 14.5 37.5L14 39L13 39.5H12L7.5 36.5H0.5Z" stroke="#EE1E1E"/>
</svg>
