<svg width="76" height="70" viewBox="0 0 76 70" fill="none" xmlns="http://www.w3.org/2000/svg">
<path d="M58.5 1.5H70H71L70 4L71 6L73 10L74.5 13L75 16L73 17.5H70.5L69.5 20.5V23L66.5 26.5V29L68.5 31.5L67.5 37.5L67 41.5L66 44L65 45L61.5 48.5L53.5 57V58.5L51.5 60.5L48 63.5L46 66.5L43 68L40.5 66.5L39.5 67L37.5 69H36.5L33.5 67.5L25.5 66.5L19.5 62L16 61.5L14 59.5L11 56L6.5 52.5L2.5 48.5L0.5 47V46V45L5 43L7.5 40.5L9 37.5L12.5 39.5L19 36.5L23 37L28 31.5L29 28.5L30 25.5L31 23L32 21L31.5 16.5L32.5 15L34.5 13V11.5V10L35.5 7L39 4L42.5 2.5L48.5 3L50.5 0.5H55H57.5L58.5 1.5Z" stroke="#EE1E1E"/>
</svg>
