<svg width="96" height="79" viewBox="0 0 96 79" fill="none" xmlns="http://www.w3.org/2000/svg">
<path d="M61.5 22.5H63.5V23.5L65.5 24.5H71L74 25.5L76.5 24.5H78.5L81.5 25L88.5 21.5L89.5 22.5L90.5 25.5L91.5 33.5L92.5 35.5V37.5L91.5 39.5V42.5L93.5 44L94.5 45.5L95.5 48V49.5L93.5 50.5L92.5 52.5V54.5L91.5 56.5V61.5L90.5 64V66.5L91.5 68.5L90.5 70.5L89.5 72.5V75.5L87.5 76.5H83.5L81.5 77.5L79.5 76.5L78.5 75.5H74.5L73.5 73.5L72.5 73L69.5 72.5L68.5 71.5L67.5 69.5L65.5 67.5L64 65.5L62.5 63.5L60.5 61.5L58.5 60.5H57.5L56.5 59.5V57.5L55.5 56.5H55H51L49.5 57.5H47.5L45.5 56.5H44.5L43.5 55.5H38.5L36.5 56.5L34.5 57.5L32.5 58.5H31.5L30.5 56.5L29.5 55L28.5 53.5L26.5 52.5L25.5 51.5L23.5 51L22 49.5L19.5 46.5L17 44L15.5 42.5L14.5 40.5L11.5 37.5L10.5 36.5L9.5 35.5L7.5 34.5L6.5 33.5L4.5 32.5L2.5 31.5H1.5L0.5 30.5V29.5V28L2.5 26.5L3.5 25.5V23.5L4.5 22.5V20.5L6.5 18.5V15.5L7.5 14L9.5 11.5L10.5 10V6.5L12 5.5L14.5 3.5L15.5 2.5L16.5 1.5L17 0.5H18.5L20 1.5L20.5 2.5V4.5L21.5 6.5L23.5 8.5L24.5 10V11V12L25.5 13L27.5 14L29.5 15.5L30.5 17L31.5 18.5L33.5 19.5H35.5L36.5 18.5L37.5 17.5L38.5 16.5H39.5L43.5 17L44.5 17.5H46.5L48.5 18.5L50 19.5L54.5 24.5H56.5L58.5 23.5L59.5 22.5H61.5Z" stroke="#EE1E1E"/>
</svg>
