<svg width="52" height="47" viewBox="0 0 52 47" fill="none" xmlns="http://www.w3.org/2000/svg">
<path d="M2.5 11.5L1.5 13V16.5H2.5L4.5 18.5L5.5 21.5L4 23L2.5 26L1.5 28V32.5L2.5 34L2 41.5L1 44.5L2.5 45.5L4 46.5H18L20 46L20.5 44L21 42.5H22.5L23.5 41.5H26L28.5 42.5H32.5L35 40.5H38L39.5 41L42 43.5L45.5 44.5L46.5 43.5L48.5 42V39.5L47.5 37.5V35.5V31.5L49 30.5L50.5 29.5V27.5L51.5 26.5V25L50.5 23.5L49.5 22.5H48.5L47 23.5H45.5L44.5 22.5L43.5 21.5L41.5 20.5L40.5 17.5L39.5 13.5L35.5 9.5H32.5V7.5L31.5 6L29 2.5H27.5L26 1.5L24.5 0.5H22.5V3.5L21.5 5.5L20.5 7.5L18 8.5L16.5 7.5L14.5 6.5L12 8.5L10.5 10.5H8.5C8.1 10.5 7.66667 11.1667 7.5 11.5H2.5Z" stroke="#EE1E1E"/>
</svg>
