<svg width="121" height="116" viewBox="0 0 121 116" fill="none" xmlns="http://www.w3.org/2000/svg">
<path d="M120 105L118.5 106L117 105.5L115.5 105L112.5 103.5L109 103L106 103.5L104 104.5L101.5 106.5C101.167 106.667 100.2 107 99 107C97.8 107 97.5 106.667 97.5 106.5C96.8333 106.667 95.2 107.2 94 108C94 107.6 92.6667 107.167 92 107L88 106.5L84 103.5H82L79 106H75.5L73.5 108L71 109C70.5 109.667 69.2 111.6 68 114L66 114.5L62.5 109.5L61 106.5L55.5 101.5C55.3333 101.5 54.4 101.7 52 102.5H48.5L47.5 101.5L47 99.5L43.5 97L41 95.5L33.5 94.5L33 89.5L32 87.5L34 85.5L33.5 84L31 82.5L25.5 78.5L24 75.5L22 73L18.5 71.5H15.5L12.5 70.5L8 67L9 61L8.5 59L5 56.5L4 54V50V48L5.5 45.5V43.5V41.5L3 39.5L1.5 36L0.5 33V21.5L2.5 19L5 21.5H7V19L4.5 16V11.5L6.5 8.5L7 5.5L9 2.5L9.5 0.5H11.5L14 2.5L21.5 2L23.5 3.5L26 5.5L28.5 7L30.5 9.5H34.5L36 11L36.5 13L40.5 15.5L44.5 17.5V20L45.5 24.5L46 21.5L48 21L51.5 19.5L54 18.5L55.5 19.5L58 21.5L58.5 24L59 27L59.5 28.5V30L58.5 30.5V32L59.5 33L62 33.5H63.5L65 33L66 31L67 30L68 29.5L69 30L70 31.5L73 33L77.5 35.5V38.5L78.5 39.5L81 42.5L83 45.5L82.5 47.5V53.5L85 55L89.5 59.5V64L87.5 66.5V69.5L92.5 74.5L93.5 76L93 78.5L94 80L96.5 81.5L97.5 80.5L99 79.5L100.5 81L103.5 84L106.5 87.5V89L108.5 90.5L112.5 91L118.5 97L119.5 98.5V100.5L120 105Z" stroke="#EE1E1E"/>
</svg>
