<svg width="96" height="45" viewBox="0 0 96 45" fill="none" xmlns="http://www.w3.org/2000/svg">
<path d="M6 35.5L2.5 34.5L0.5 34V31.5L2.5 29.5L4.5 26L5.5 22.5L8 19.5L11.5 18L15.5 17.5L18 14.5L18.5 11.5H23.5L29 8.5L34 6L38.5 3L41.5 1C41.1667 1.16667 40.9 1.6 42.5 2C44.1 2.4 45.1667 2.5 45.5 2.5C46.3333 2.66667 48.1 2.9 48.5 2.5L50 2L53 3.5H55L59.5 6.5L65.5 11.5L72 14.5L76 13.5L78.5 11.5L81 13L87.5 17L89 17.5L92.5 18.5L95 18V20L95.5 23V24.5L92.5 28.5L91 31.5V33.5L89.5 35.5H89L82.5 28.5L80 27.5H78L76.5 29L75.5 30.5L75 34.5L73 37L66.5 38L64 35L62.5 34.5L58.5 38.5L52.5 41L51 42.5H48L46.5 41.5H45L41 44V40.5L39 37L37 34.5L34.5 33L32.5 32L30 31.5L27.5 32.5V34.7924L26 36H24L21.6112 35.5L20.3402 34.5L18.5 33.5L16 34L14.5 34.7924L12.5 35L10.3384 34L8.5 33L6.5 34L6 35.5Z" stroke="#EE1E1E"/>
</svg>
