<svg width="113" height="98" viewBox="0 0 113 98" fill="none" xmlns="http://www.w3.org/2000/svg">
<path d="M77.5 87.5L79.5 89.5V93.5L78.5 94.5H77.5L76.5 95.5H75L71.5 97.5H68.5L67 95L62.5 94.5L61.5 93.5H57L56.5 92.5L55.5 91.5V90V84.5L53.5 82.5V79.5L54.5 78.5V76.5L52.5 74.5L52 73L52.5 69.5L51.5 68.5L49.5 64.5L47.5 63.5V61.5L46.5 59.5L44.5 57.5V53.5L43.5 52.5H42.5L41.5 51.5V44.5L39.5 42.5V41.5L37.5 39.5H36L35.5 38.5H33.5L32.5 37.5H31.5L30.5 36.5H29.5L27.5 38L26.5 37.5H24.5L23.5 38.5H20.5L19.5 37.5V35.5L21.5 33V32L19.5 29.5H14.5L13.5 30.5V33.5L11.5 35.5H9.5L8.5 34.5V31.5L7.5 29.5H5.5L4.5 30.5H3.5H2.5H2L1.5 29.5H0.5V28.5V25.5L1.5 24.5V23.5L2.5 22.5V21L3.5 19.5V18.5L4.5 17.5C4.9 17.1 5.33333 17.3333 5.5 17.5L6.5 16L7.5 14.5V13.5L8.5 12.5V11.5L10.5 9.5H11.5L12.5 8.5H14.5L15.5 6.5H16.5H18.5L19.5 7.5L21.5 8.5L23.5 9.5L24.5 11.5L25.5 12.5L26.5 12L27.5 11.5H29.5L30.5 10.5H31.5L32.5 11.5H33.5L34.5 12.5L36.5 13.5H37.5L40.5 10.5H44.5V11.5L45.5 12.5L46.5 13.5H47.5L48.5 14.5L50.5 16.5L54.5 19.5L55.5 20.5H59.5L60.5 21.5L61.5 22.5H62.5L63.5 21.5V19.5L64.5 18.5H67L67.5 19.5H68.5V20.5L69.5 21.5V22.5L70.5 23.5H71.5L72.5 24.5L73.5 25L74.5 25.5V28.5L75.5 29.5H78L79.5 30.5L80.5 29.5L81.5 28.5V28L82.5 26.5L83.5 25.5L87.5 20.5L88.5 19.5V16.5L87.5 15.5V14.5L88.5 13.5V8.5L86.5 7.5L85.5 6.5V3.5C85.8333 3.33333 86.5 2.9 86.5 2.5C86.5 2.1 90.5 2.33333 92.5 2.5L93.5 3.5H94.5L95.5 4.5H96.5L97.5 3.5H98.5L101.5 1.5L102.5 0.5H103.5V1.5L104.5 2.5L105.5 3.5H106.5V9.5L107.5 11L109.5 11.5V12.5L108.5 14V15.5L112.5 19.5V20.5V21.5V23L111.5 23.5V25.5L110.5 26.5H104.5L103.5 28.5C103.167 29 102.5 30.1 102.5 30.5C102.5 30.9 101.833 31.3333 101.5 31.5L100.5 30.5L99.5 29.5L98.5 28.5C98 28.1667 96.9 27.5 96.5 27.5H95.5L93.5 29.5H88.5L87.5 31L86.5 31.5V32.5L85.5 33.5H84.5V35.5L85.5 36.5L86.5 37.5H87.5L88.5 38.5V39.5L90.5 41.5V42.5L89.5 43.5L89 44.5L87.5 45.5H86.5L85.5 46.5H83.5C83.1 46.5 82.6667 45.8333 82.5 45.5H80.5L79.5 46.5V50.5L78.5 51.6311V56.5L79.5 57.5L80.5 58.5V59.5L81.5 60.5V61.5L82.5 62.5V64.5L81.5 65.5H80.5L79.5 66.5L78.5 67.5C78.1 67.9 79 68.3333 79.5 68.5L81.5 70.5V71.5V72.5L80.5 73.5L81.5 74.5V77.5L80.5 78.5L79.5 79.5V81.5L78.5 82.5V83.5L77.5 84.5V87.5Z" stroke="#EE1E1E"/>
</svg>
