<svg width="61" height="94" viewBox="0 0 61 94" fill="none" xmlns="http://www.w3.org/2000/svg">
<path d="M58 52C57.8333 52.5 57.4 53.7 57 54.5L57.5 55.5L59.5 57V58L60 59.5L59.5 61L59 62L55.5 64.5H54L53 65L50 68L48 71C47.6 71 46.5 71.3333 46 71.5L43.5 71L42.5 71.5L41.5 73V74.5C41.5 75.7 41.8333 76 42 76L43 77.5L44 79.5L45 81.5L45.5 83V85V87V89L45 91L44.5 92.5L44 93H43H41.5L40.5 92.5V91V89.5L39 88.5H38L37 89L36 90L35 90.5H34H33L32 89L30.5 86L30 85C29.6667 84.6667 28.8 83.9 28 83.5C27.2 83.1 26.6667 82.3333 26.5 82V81L26 80.5L25 80H24L23 79.5L22 80L19.5 81L18.5 82L17 82.5H14.5L12.5 81.5C12.1667 81.3333 11.2 80.7 10 79.5C8.8 78.3 8.83333 78.3333 9 78.5L7.5 77L6 76L4.5 74.5V72.5L3 70.5L0.5 68V67L1.5 65.5L2 64.5L2.5 63.5V62.5L3.5 61L5 59.5L6 57.5L7.5 56.5L9 55L10 53.5H14.5L16.5 54.5H19.5L20 53.5H21L22 52V46.5L23 44.5L23.5 43V41.5L22 39L21 37.5C21.3333 37 22.1 35.7 22.5 34.5C22.9 33.3 22.6667 33.3333 22.5 33.5C22.3333 33 21.8 31.7 21 30.5C20.2 29.3 20.3333 28.6667 20.5 28.5L20 27.5L18.5 26.5V25L19 23V21.5L20.5 19C22.5 19 25.9 19 23.5 19L25 18.5C25.6667 18 27.2 16.9 28 16.5C28.8 16.1 29.6667 16.3333 30 16.5L32.5 16L33.5 14.5L34.5 13.5L35.5 13H37H38.5L39.1972 12.5C39.4648 12.5 40.2 12.3 41 11.5C41.8 10.7 41.6667 10.1667 41.5 10V8.5L42 6.5C42.4 5.7 42.5 5.5 42.5 5.5L44 5C45.6 4.6 45.3333 4.16667 45 4L46.5 3L47.5 1.5L48 1L49.5 1.5V3C49.5 3.8 49.5 5 49.5 5.5L50 7.5L51 9.5L52 11L53 12.5L53.5 14L55 15.5V16.5C55 17 55 18.2 55 19C55 19.8 55.3333 21 55.5 21.5L56 23L57 24.5L58.5 26.5L59 29V33L58.5 37V39L57 40.5L56 41V42L57 43C57.8 43.8 58.3333 44 58.5 44L59.5 45.5L60.5 47V48L60 49.5L58 52ZM58 52C58.8 50.8 58.3333 51.1667 58 51.5V52Z" stroke="#EE1E1E"/>
</svg>
