<svg width="96" height="168" viewBox="0 0 96 168" fill="none" xmlns="http://www.w3.org/2000/svg">
<path d="M10 166.5H8L8.5 164V162V159.5L9.5 159V157.5L11.5 156.5L12 155.5L12.5 154L12 153.5L11.5 152V150.5C11.5 150.167 11.6 149.5 12 149.5C12.4 149.5 13.5 148.5 14 148L14.5 147V146L12.5 145L10.5 144L8.5 142.5L7 140.5L6.5 139L7 137L8 136H9.5L12 136.5V135.5L11.5 134.5L10.5 133V131.5L11.5 131L13 131.5H14L15.5 130.5V125.5L15 124.5L13.5 122L12.5 119V117.5L13 116.5L17.5 117L20.5 112.5L21.5 112V111.5V106.5L20.5 105.5V102.5L19.5 101.5V99.5L18.5 98.5V95.5L18 95V94L17.5 93L17 92L17.5 91.5L19.5 89.5V82.5L15.5 74.5L14.5 73.5V73L13.5 67.5L14.5 65V64.5V58.5L16 57L16.5 50.5L16 43.5L15 43L12 41L8.5 37.5L6.5 35L5.5 34L4.5 32.5L3 31L1 29L0.5 28V27L1 26L1.5 25L2 24H3L4 23L6 21.5H7.5L9.5 20.5L14 18L18 14.5L19.5 13.5V12.5C19.1667 12.1667 18.5 11.3 18.5 10.5C18.5 9.7 17.8333 9.83333 17.5 10L17 9L16.5 7.5L17 7L18 6.5H19.5L21 5.5L21.5 4.5L22.5 3L25 1L26 1.5L26.5 2L27.5 3L28.5 3.5L29 4.5L29.5 5L30.5 6L31.5 6.5L32.5 7L33.5 7.5H35H36.5L37.5 7L38.5 6L39.5 5.5L41 5L42 4.5L43 5H44L45 5.5L45.5 6V7L46.5 8L48 9L49.5 11L50 12L50.5 13L51 14L51.5 15L52.5 15.5H54L55 15L56 14L56.5 13.5H57.5H58.5L59 14L59.5 14.5V16V17.5L60.5 18H62L63 18.5L63.5 20.5V21L64 22V23.5C64 24.7 63.6667 24.6667 63.5 24.5L63 26C63 26.8 62.6667 27 62.5 27V28.5L63 29.5L63.5 30V31L64 31.5L64.5 32L65 32.5H67H68.5H69.5L70 33L70.5 33.5V34.5V36.5V38V39.5L71.0818 39.767C71.1782 39.8301 71.3138 39.9069 71.5 40L72.5 41L73.5 42L74.5 43H76L77.5 43.5L78 44.5L78.5 45.5L79 46.5C79 46.9 79.3333 47.3333 79.5 47.5L80.5 48L81 48.5L82 49.5V50.5V51.5L82.5 52.5H83.5H84.5L85 52L86 51.5H87L87.5 52L88 52.5L88.5 53L89 54.5L90 56.5L90.5 57.5L91 58.5L92 59.5L92.5 60.5L93 61.5L93.5 62.5L93 63.5L92 64L91.5 65C91.1 65.8 91 65.6667 91 65.5L90.5 66V66.5V67L91 67.5L92 68L93 68.5H94C94.8 68.5 95 69.1667 95 69.5V70.5V72V73L94.5 73.5L94 74L93.5 74.5H92.5H91.5H90.5C89.7 74.5 89.8333 74.8333 90 75L89.5 75.5L90 76.5L91 77.5L91.5 78L92.5 78.5L93 79L94 79.5L94.5 80L95 80.5L95.5 81.5V82V82.5L95 83L93.5 83.5L92.5 84L91.5 85L91 86.5L91.5 88.5V90L91 90.5L90 91.5L89.5 92L88.5 92.5L87.5 93L86.5 93.5L85 94L84 94.5L83.5 95.5V96.5V98L84 99L84.5 100V101.5V103L84 103.5L83.5 104.5H82.5L82 105L80.5 106V107L81.5 108L82 109L82.5 111V113V116L83.5 117V120L83 120.5L82.5 121V121.5V122L82 122.5H81L79.5 123H78H76L74.5 123.5L73.5 124.5H72H71L70.5 125L70 125.5L70.5 126.5V127.5L71 128.5L71.5 129L72.5 130L73.5 131L75 131.5L76 132V132.5V134L75.5 135.5V141.5H74.5L73 141L72.5 140L71.5 139H70.5L69.5 139.5L69 140L68 141L66.5 141.5L65.5 142.5L64.5 143.5L63 144L62.5 145L62 146V147C62 147.167 61.9 147.7 61.5 148.5V149.5V151H61L59.5 149.5H57.5L53.5 146.5H52.5L49.5 145.5L48.5 146.5H47L45.5 147.5L45 147L43.5 145.5L42.5 143.5L39.5 140.5H35.5L35 142L34.5 143V144L32 146.5H30.5L29.5 147.5H28.5L27.5 148.5H26.5L22.5 152.5H21.5L20.5 153.5C20.5 153.833 20.3 154.7 19.5 155.5V156.5L16.5 159.5V161.5L16 162L14.5 163.5C14.5 163.833 14.4 164.7 14 165.5L11.5 167.5H10.5L10 166.5Z" stroke="#EE1E1E"/>
</svg>
