<svg width="65" height="76" viewBox="0 0 65 76" fill="none" xmlns="http://www.w3.org/2000/svg">
<path d="M64.5 56.5V59.5V61.5L62.5 62.5L59.5 65.5V66.5L58.5 67.5V68.5L56.5 70.5H53.5L53 71L50.5 72.5L49.5 74.5L48.5 75.5H47H45.5L43 73.5H41.5V72.5H39.5L37.5 69.5H37H36.5L34.5 70.5H33.5L31.5 68.5L29.5 67.5L27.5 60.5L23.5 56.5H20.5V54.5L20 54L17 49.5H15.5L12.5 47.5H9.5V46.5L8.5 45.5V44.5L7.5 43.5V39.5L6.5 38.5V35.5L5.5 34.5V33.5L4.5 32.5V30.5L3.5 29.5L2.5 28.5L1.5 26.5V23.5L0.5 22.5V18.5L1.5 17.5V16.5L2.5 14.5L3.5 12.5L6.5 10.5V8.5L5.5 7.5V4.5L8.5 1.5H10.5L11.5 2.5H12.5L14.5 0.5H16.5L17.5 2.5V5.5L18.5 6.5H20.5L22.5 4.5V1.5L23.5 0.5H28.5L29.5 1.5L30.5 3V4.5L29.5 5.5L28.5 6.5V8.5L29.5 9.5H32.5L33.5 8.5H35.5L36.5 9L37.5 8.5L38.5 7.5H39.5L40.5 8.5H41.5L42.5 9.5H44.5L45 10.5H46.5L47.5 11.5L48.5 12.5V13.5L50.5 15.5V22.5L51.5 23.5H52.5L53.5 24.5V28.5L55.5 30.5L56.5 32.5V34.5L58.5 35.5L59.5 37.5L60.5 39.5L61.5 40.5L61 44L61.5 45.5L63.5 47.5V49.5L62.5 50.5V53.5L64.5 55.5V56.5Z" stroke="#EE1E1E"/>
</svg>
