<svg width="113" height="66" viewBox="0 0 113 66" fill="none" xmlns="http://www.w3.org/2000/svg">
<path d="M33.5 54.5H29.5H26.5L25.5 53.5L20 48L18.5 46.5H16.5L15.5 45.5L13.5 44.5V42.5L11.5 41.5H8L6.5 40.5L4.5 38.5V36.5H3.5V34.5L1.5 32.5L1 30.5L0.5 29.5V28.5V27.5L1.5 26.5H3.5L5.5 25.5L6.5 24.5H7.5L9.5 22.5V21L10.5 20.5L11.5 21.5L12.5 20.5L13.5 19.5V15.5L14.5 14.5L15.5 14V12.5L19.5 8.5L21.5 7.5L22.5 6.5L23.5 5.5L26 4.5L28.5 3.5L31.5 4.5L33.5 5.5L36.5 5L40.5 2L42.5 1.5L45.5 2L46 2.5H47.5V5L46.5 5.5V12.5L47.5 13V18L49.5 19.5H52.5V18.5H54H57.5L58.5 19.5L59 20.5L60.5 21.5L61.5 22.5H63.5L64.5 23.5L65 22.5H66.5L67.5 23.5L68.5 24.5L70 25.5L71 24.5H73.5L74 25.5L75.5 26.5L82.5 31.5H85.5L86.5 30.5H87.5L88.5 31.5L89.5 32.5L90.5 33.5V35.5L89.5 36.5L88.5 37.5V40.5L87.5 41.5L86.5 42.5V43.5L87.5 44.5L88.5 45.5H91.5L92.5 46.5C92.9 46.9 94 46.6667 94.5 46.5L96.5 47.5V50.5H99L101.5 48.5H103.5V52.5H106.5L107.5 51.5H111.5L111 54.5L109.5 56.5L109 57.5H108.5V58.5L107 59.5V61.5H104.5L103.5 60.5H102.5L101.5 59.5H98.5L97 60.5L96.5 61.5L95.5 62.5H89L88.5 61.5L87.5 60.5V59.5L86.5 58.5L84 57.5L82.5 58.5L74 65.5H72.5L71.5 64.5H70.5L66.5 61L64 58.5L62.5 57.5H61.5L59 59.5H51.5L50.5 58.5H49.5L48.5 57.5H47.5L45.5 56.5H41.5L40.5 55.5L37.5 52.5H35.5L33.5 54.5Z" stroke="#EE1E1E"/>
</svg>
