<svg width="94" height="107" viewBox="0 0 94 107" fill="none" xmlns="http://www.w3.org/2000/svg">
<path d="M69.5 62V67L68.5 67.5L68 68.5L67.5 69.5L66.5 70.5V72L67.5 73.5L68 74.5L67 75.5L66.5 77L65.5 78.5H64.5L63.5 79.5H62L61.5 80V83.5L60.5 85.5L60 87.5L58.5 89.5V91.5L57.5 92.5L58.5 93.5V98.5L59.5 100.5H62.5L65.5 103.5L66.5 105.5L67.5 106.5H66.5H64.5L62 106L59.5 104.5L57.5 103.5L55 103L53.5 102.5L52 102L47.5 97.5L46.5 95.5V93.5L43.5 92.5H41.5L40 92L38 90.5H36.5L34 89.5H32.5L31.5 90.5L30 89.5L29.5 88.5L27.5 87.5H26.5V85.5L25.5 83.5V81.5L24.5 80.5L22.5 76.5L20.5 75.5H19L18.5 74.5V73.5L19.5 72.5V71.5L17 69.5H15.5L14.5 68.5H13L12 66.5H10.5L10 65.5L6.5 62.5L5.5 61.5L0.5 56V55V52.5L8.5 44.5H10.5L11.5 43.5L13.5 42.5L16 41.5H17.5L18.5 40.5H20H22L22.5 39L24 36.5L24.5 33.5L23.5 32.5V31.5L24.5 30.5V30L25 21.5L26.5 20.5H28.5H30.5L32.5 18.5H40.5L41.5 17.5H43.5L44.5 16.5L47.5 14.5H49L50.5 13.5H51.5L52.5 12.5H54.5L55.5 11.5H57.5L58.5 10.5L59.5 9.5H60.5L61.5 8.5H62L63.5 7.5H67.5L68.5 6.5L69.5 5.5L70.5 4.5L71.5 3.5L72.5 2.5H73.5L74.5 1.5H76L77.5 0.5H78.5H80.5L82 1.5H83.5L85.5 3.5L87.5 4.5L89.5 6.5L91.5 8.5L93 9.5L92.5 11.5L90.5 13.5H87.5L86.5 12.5L85.5 11.5H84.5L83.5 12.5L82.5 13V14.5H81.5L80.5 15.5H77.5L77 16.5H75.5L74.5 18.5L75.5 19.5V22.5L74.5 24L75.5 24.5L76.5 25.5L77.5 27V29.5L76.5 30.5H75.5L74.5 32V36.5L75.5 38.5L76.5 40L77 40.5L77.5 41.5L78.5 42.5V43.5L79.5 44.5L80.5 46V51.5L79.5 52.5L78 53.5L76.5 54.5L75.5 55.5L74.5 56.5L72.5 57.5H71.5L70.5 59V60.5L69.5 62Z" stroke="#EE1E1E"/>
</svg>
