<svg width="76" height="60" viewBox="0 0 76 60" fill="none" xmlns="http://www.w3.org/2000/svg">
<path d="M70.5 49.5L69.5 50.5L68.5 52.5L66.5 53.5H64L62.5 51.5H58.5L57 52.5H52.5L51.5 51.5H50.5C50.1667 51.1667 49.4 50.5 49 50.5H47.5L46.5 51.5V54.5L45.5 55.5H44L38 59.5H34L32.5 57.5H31.5V55.5L30.5 54V51L28.5 49.5L23 52.5L19.5 53.5L16 49.5H14C13.5 49.1667 12.4 48.5 12 48.5C11.5 48.5 10.5 47.5 10 47.5C9.6 47.5 8.5 46.8333 8 46.5L6.5 45L4.5 43L3.5 42.5V38.5L4.5 37.5L5.5 35.5L6.5 33.5L8.5 31.5V29.5L5.5 26.5H4.5L2 24L0.5 22V20L1.5 18.5L2.5 16.5V15.5C2.5 15.1 4.83333 15.3333 6 15.5L8.5 14.5V12L7.5 10L8.5 8.5C9.16667 8 10.5 6.9 10.5 6.5C10.5 6.1 11.8333 6 12.5 6L14.5 5V2.5L17 2L19.5 1.5V2.5L21.5 4.5L23.5 3.5L25.5 1.5H30.5L32.5 3.5L33.5 6.5L31.5 8.5L30.5 11.5L29.5 13V17.5L30.5 18.5V25.5L29.5 27.5L28.5 29.5L30.5 30.5L31.5 31.5H47.5L48.5 30.5V28.5L49.5 27.5H51L51.5 26.5H55L56.5 27.5H60.5L62.5 25.5H65L66.5 27V29.5L67.5 30.5V32.5L70.5 35.5H71.5L75.5 39.5V41.5C75 42.1667 73.9 43.5 73.5 43.5C73.1 43.5 72.6667 45.5 72.5 46.5L71.5 48L70.5 49.5Z" stroke="#EE1E1E"/>
</svg>
