<svg width="79" height="88" viewBox="0 0 79 88" fill="none" xmlns="http://www.w3.org/2000/svg">
<path d="M64 87L60 86.5L59.5 85.5L57 83.5L50 77L49.5 72.5L48 71L43.5 69L40.5 65.5L38 64.5L36 64L32.5 60.5V57.5L33.5 56.5V54.5L34.5 54V49.5L33 47.5C32.3333 47.5 30.8 47.7 30 48.5C29.2 49.3 23 49.1667 20 49L15.5 55L14.5 58.5C14.1667 59.1667 13.5 60.6 13.5 61C13.5 61.4 12.8333 63.5 12.5 64.5L10.5 66L7 68H3.5L4 66C4.33333 65 5 62.9 5 62.5C5 62.1 4.33333 60.3333 4 59.5L2.5 57L4 54.5L8.5 50.5L10.5 49L9.5 46.5H7H3L1.5 45.5L5 41H9.5L12 38.5H15.5H19H22L24 37L24.5 34.5L25.5 30L30 28L35.5 25H38.5L42 25.5L45 22.5L49.5 21.5L54.5 16.5L60.5 13.5L63.5 11L66 10.5L67 6.5L68.5 3L70.5 1.5L75.5 5L73 11V15.5L76 18L77.5 25.5L73 30L74 32.5L75.5 37.5L74 40L70.5 43L69 45.5L69.5 49.5L71 52.5L74 54.5V57.5L77 62.5L75.5 64L75 70.5L73.5 73L69 74.5L68.5 78L69 80.5L67 82L66.5 83.5C66.5 84 66.3 85.3 65.5 86.5L64 87Z" stroke="#EE1E1E"/>
</svg>
