<svg width="113" height="73" viewBox="0 0 113 73" fill="none" xmlns="http://www.w3.org/2000/svg">
<path d="M2.5 56.5L1 56L0.5 53.5L1 50.5L5.5 49L7 46.5L7.5 43V40.5L9 38.5L8.5 37L6 33.5V30.5L3.5 28.5L1.5 25.5L1 22L1.5 20L3.5 18L6.5 15.5L7.5 13L6.5 9L5 6L7.5 3.5L10 1.5L13 5.5L17 9L21 10.5L27 10L29 7.5L31.5 6L34.5 7.5L36 6.5L42.5 7L45.5 12V19L48.5 22.5H57.5L60.5 24.5L62.5 22.5L67.5 20L68.5 18L69.5 12L72.5 10L76.5 13.5L80 14.5H82.5L86 16L87.5 18L89.5 21.5L97.5 27V29L96 30.5L97 32L98 37.5L105.5 38.5L111 42.5L112 45.5L105.5 47.5L101.5 52.5L95 54L93.5 56.5L93 60L95 64.5L92.5 66.5L83.5 71L79 72V68L75 63V59L76.5 57L76 56L70.5 50.5L64.5 50L60 55L59 59.5L57.5 62L52.5 66L50 68.5H47L44.5 65V60.5L45.5 59L44.5 57H39.5L32.5 51.5L27 53.5L24 56.5L15 64.5L12 58.5H11L8.5 62H7.5L2.5 56.5Z" stroke="#EE1E1E"/>
</svg>
