<svg width="78" height="59" viewBox="0 0 78 59" fill="none" xmlns="http://www.w3.org/2000/svg">
<path d="M18 51.5L16 49.5V47.5L13.5 45.5L13 44L14.5 42.5L15 38.5L5 30.5L4 28.5L4.5 24.5L3.5 22.5V20.5L3 18L1.5 15.5L2 13V9.5L2.5 7L6 2.5L7.5 1L9 2.5L11.5 3.5L12 6.5L14 9.5H18H23.2449L25 12L26.5 12.5L28 9L28.881 7.5H30L33 9.5L34.5 11L35 13L36.5 14.5L39 15.5L42 15L43 12.5V10.5L42 9L42.5 7.5L44.5 6L47.5 7.5L49 8.5L51 7.5L54.5 7H56L59 9.5L62 9L63.5 8.5V6L64.5 5L67 4.5L70 5.5L74 8.5L76.5 12L77 14.5V17L71 19L65 24.5L63.5 27L63 30L65.5 33.5L67.5 36.5L69.5 40L69 41L68 41.5H63L60 43.5L53.5 48L51.5 48.5L50 49.5H48H46.5L45 50.5L41.5 50H40L37 51.5L35 53.5L33.5 54.5H33H32.5H31.5L30.5 53.5H29L28 54L27 54.5L26 55.5L23 58L22 58.5H20.5L19.5 58V55.5L20 53.5L19.5 52L19 51.5H18Z" stroke="#EE1E1E"/>
</svg>
