<svg width="65" height="72" viewBox="0 0 65 72" fill="none" xmlns="http://www.w3.org/2000/svg">
<path d="M10 53L8.50001 52.5V51L7.5 49L6.5 47L4 44.5L3.5 42.5C4 41.5 5 39.4 5 39C5 38.6 4.66667 37.8333 4.5 37.5L3.5 35L2.5 33L1 30.5V28L1.5 26L2.5 25L3.5 23L5 19.5L6.00001 18L6.5 17L6.00001 15.5L5 14.5C4.83334 14.1667 4.40001 13.2 4.00001 12C3.60001 10.8 4.50001 10.1667 5.00001 10V7.5L6.00001 5L7.50001 3.5L9.50001 2L11 1.5L13 2.5L15 3.5L18 4.5L20.5 6L21.5 7.5C21.8333 7.83333 22.7 8.5 23.5 8.5C24.3 8.5 24.5 7.83333 24.5 7.5L25.5 6.5L26.5 5.5L28 6L29 6.5L30.5 8L32.5 8.5L34 8L35.5 6.5L37.5 6L39.5 5.5L41 6.5L42.5 7L44 8.5L45.5 9.5L46 11C46 11.1667 45.7 11.8 44.5 13L43.5 14L43 16L44 18L45 20C44.8333 20.6667 44.3 22.4 43.5 24C42.7 25.6 42.1667 26 42 26C41.8333 26.5 41.6 27.9 42 29.5L42.5 31.5V33.5L43.5 35.5H45.5L48 37L50 38L52.5 39.5L53.5 41.5L54 43.5C54 43.6667 53.9 44.4 53.5 46C53.1 47.6 53.3333 48 53.5 48L54.5 49.5L56 50L58 51.5L59 54L60 55.5L61 57.5L63 59.5L63.5 61.5L62 63L61 64.5L59 66H58L56.5 65.5L55.5 64.5H53.5L52 65L51.5 66L50 66.5L48 68L46.5 69.5L45.5 70L43.5 70.5L42.5 71L42 70.5L41 68.5L40 67L37.5 66L35.5 65H34C32.8 65 32.5 64.6667 32.5 64.5L32 63.5L31.5 62.5L30 61.5L29 61L27 60.5L25 59L23 57.5H21.5H19.5L18 57L17 55.5L16 53.5L15 52.5L13.5 51.5L12.5 51L11 52.5C10.6 52.9 10.1667 53 10 53Z" stroke="#EE1E1E"/>
</svg>
