<svg width="139" height="82" viewBox="0 0 139 82" fill="none" xmlns="http://www.w3.org/2000/svg">
<path d="M10.5 40.5H6.5L1 36.5V34.5L2.5 33.5V32.5H3L5 29.5L5.5 26.5L6.5 25H9L10 23.5H11.5L12.5 21.5L10.5 18.5L12.5 15.5H14L16 14L16.5 10.5L15.5 9.5V7.5L18.5 4.5L21 6.5H22.5L24 5.5L25 4.5L29.5 1.5L32.5 2.5H33.5L35.5 1.5L37.5 2.5H41.5V3.5L42.5 4.5V7.5L42 8L40.5 9.5C40.1 9.9 40.3333 11 40.5 11.5L41.5 12.5H45.5L48.5 15.5L52 19.5H55.5L58 20.5C58.3333 20.8333 59.1 21.5 59.5 21.5C59.9 21.5 60.3333 22.1667 60.5 22.5L62.5 23.5H68.5L69.5 22.5H75.5L79.5 27L81.5 24.5H96.5L98.5 22.5H100.5L101.5 23.5V24.5L102.5 25.5V26.5L103.5 27.5L104.5 28.5H107.5C107.667 28.8333 108.1 29.5 108.5 29.5C108.9 29.5 109.333 30.1667 109.5 30.5H111.5L112.5 29.5H117.5L118.5 30.5H120.5L121 31.5H121.5L122.5 32.5V34L123.5 35.5V36.5L127.5 40.5L128.5 42.5V45.5L126.5 46.5L125.5 47.5V50.5L126.5 51.5V52.5L128.5 53.5L129.5 54.5V55.5V57.5C129.5 57.9 130.167 58.3333 130.5 58.5L131.5 59.5L133.5 60.5L135.5 61.5L136.5 62.5L137.5 63.5L136.5 64.5L135.5 65.5L134 66.5L133.5 67.5H131.5L130.5 68.5H129.5L128.5 70L127.5 70.5L127 71.5L126.5 72.5V73.5H125C124.6 73.5 125.167 74.1667 125.5 74.5V75.5L124.5 76.5L123.5 77.5L122.5 78.5H121.5L120.5 77.5H119.5L118.5 76.5H117.5L116.5 77.5H115.5L114.5 76.5H110.5L108.5 78L107.5 80.5L105.5 81.5H103.5L101.5 80.5V77.5L100.5 75.5L97.5 74.5L95.5 73.5L93 72L90.5 70L88.5 70.5L86.5 68.5L85.5 66V61.5L86.5 60.5V58.5L87.5 57.5V53.5L85.5 51.5H83.5L82 50.5H81L78.5 49.5L77 50.5H74.5L73.5 49.5L72.5 50.5H71.5V51.5L69.5 53.5L68.5 52.5L65.5 53.5L64.5 55.5L62.5 56.5H61.5L60.5 57.5L59.5 56.5H53.5V55.5H48.5L47.5 56.5L44 59.5H41.5L40.5 58.5L39.5 59.5H37.5L36.5 60.5H34.5L33.5 59.5H31.5L30.5 58.5H29.5L25.5 54.5L24.5 52.5V51.5L25.5 50.5V47.5H24L22.5 45.5V43.5L21.5 42.5L20.5 41.5V40.5L19.5 39.5H18.5L16.5 40.5L15.5 39.5H14L13.5 39L13 38.5H12.5L10.5 40.5Z" stroke="#EE1E1E"/>
</svg>
