<svg width="67" height="65" viewBox="0 0 67 65" fill="none" xmlns="http://www.w3.org/2000/svg">
<path d="M0.5 17.5L2 15H3L5 13L9.5 9L14 4.5L19.5 2.5L26.5 8H31.5L32.5 10L31.5 12V16L34 19.5H37L39.5 17L44.5 13L46 10L47 6L51.5 1L57.5 1.5L63 8L62 10V14L64.5 17L66 19.5V23L65 24V27.5L64.5 31.5L63.5 33V40.5L65 43V45.5C64.6667 46 64 47.1 64 47.5C64 47.9 63.6667 48.6667 63.5 49L59.5 50.5L54.5 56.5L47 59.5H44.5H41L34 62L31.5 63.5L25 57.5H23.5L20 55.5L19 54L16.5 52.5L14 44.5V43L15 40.5L17.5 35L19.5 32.5V29.5L18.5 28.5L13.5 29.5L12 28L9.5 26L7.5 25.5L0.5 19.5V17.5Z" stroke="#EE1E1E"/>
</svg>
