<svg width="70" height="74" viewBox="0 0 70 74" fill="none" xmlns="http://www.w3.org/2000/svg">
<path d="M2 31.5L2.5 29H4.5L7 28.5L10 27L13 25.5L17 23.5L19 21.5L18.5 19.5L17 17L17.5 14L19 11L22 10L25.5 9.5L28 6.5L29.5 4.5L33.5 3.5L35 3L37 2.5H40L43.5 1.5L45.5 3.5L49 6.5L50.5 10L54 14L54.5 15.5L55 28.5V32.5L55.5 33.5L58 35.5L60 38.5L61 42.5V44L62.5 47.5L64.5 50L67.5 50.5L68.5 51.5L68 53.5L66 54.5L64.5 56L64 57.5L61.5 61V64C61.5 63.6 62.1667 64.5 62.5 65L63.5 66L62.5 67L60.5 68.5C58.9 69.7 59.1667 70.3333 59.5 70.5L58 73L47.5 72.5H40C39.8333 72.5 38.6 71.9 35 69.5H34L32 69L31 69.5C30.6667 69.5 29.5 69.9 27.5 71.5L27 70.5L19 63.5L17.5 63L15.5 62.5L12.5 62L8.5 58L7 57.5L4 56.5L1 55V53.5L2 51.5L1.5 48.5L0.5 46.5V39L1.5 37L2 34V31.5Z" stroke="#EE1E1E"/>
</svg>
