<svg width="65" height="64" viewBox="0 0 65 64" fill="none" xmlns="http://www.w3.org/2000/svg">
<path d="M7.5 10H5L2.5 12L2 14L4 18L3.5 20L1 25L1.5 29.5V31.5L2.5 33.5H5L11.5 37.5L12.5 39.5L13 42.5L12.5 46L14.5 48L17 49.5L18 52L20 55.5L21.5 57L22.5 59.5L24.5 60L26.5 62L29.5 63L34 62.5L37 62L39.5 63L41.5 62.5L45 60.5L47.5 59.5V57.5L48 53.5L50 51V49L50.5 46.5L51 45L54 41.5L55 39L54.5 35.5L52.5 31L53 27L53.5 25L57 23.5L58.5 22L59.5 19.5L60.5 18L63 16L64 14.5L63 12.782C62.6 11.8076 62.1667 11.188 62 11V9.5L63.5 7.5L63 6.5L60 4L56.5 2L52 1.5L49 1L46 2.5C47.2 1.3 45.5 2.66667 44.5 3.5L43.5 3L42 2L40.5 1L37.5 0.5H33.5L31.5 1L30.5 2.5L29.5 3.5H28C27.2 3.5 25.3333 2.83333 24.5 2.5H22.5L21 3.5L20.5 5.5V7.5L19.5 9.5L16 11C15.6667 11.1667 14.7 12.2 13.5 15L12.5 15.5L11.5 15L10.5 13.5L9 11L7.5 10Z" stroke="#EE1E1E"/>
</svg>
