<svg width="73" height="144" viewBox="0 0 73 144" fill="none" xmlns="http://www.w3.org/2000/svg">
<path d="M10.5 143.5H2.5H0.5V141L4.5 136.5V132.5L3.5 131.5V131L2.5 129V125.5L3.5 124.5H4.5L8.5 120.5V116.5L9.5 114.5V109.5L10.5 107.5V105.5L20.5 97.5V95.5L25 91L26.5 89.5V88.5V84.5L25.5 83.5L20.5 76.5V75.5L22.5 73.5V70.5L15.5 65.5V64.5L16.5 63.5L18.5 62.5V61.5L17.5 60.5V56.5L18.5 54.5L20.5 52.5V50.5L19.5 49L17.5 50.5L15.5 50V46.5L12.5 43.5V42.5L13 42L14 40.5L17.5 34.5V31.5L13.5 26.5L5.5 21.5V20.5L6.5 19V15.5C6.5 15.1 7.16667 14.6667 7.5 14.5V12.5L8.5 11.5V5.5L13 1.5H14.5L16.5 3.5H20.5L21.5 2.5H24.5L25.5 1.5H27.5L28.5 0.5H33L35.5 3.5H37L38.5 2.5H44.5L46.5 4.5L49.5 5L50.5 5.5L51.5 6L52.5 6.5H54.5L55.5 5.5H58.5L60.5 7.5H62.5L64.5 5.5H66.5L67.5 6.5H70.5L72.5 7.5V11.5L71.5 12.5L70.5 11.5H67.5L66.5 12.5V15.5L65.5 16.5V19.5L66.5 20.5V25.5L65.5 26.5V28.5L63.5 30.5V41.5L61.5 42.5L60.5 44.5L59.5 46.5V49.5L61.5 51.5H64.5V55.5H63.5L61.5 57.5H60.5L58.5 55.5H50.5L49.5 56.5V59.5L50.5 60.5V62.5L51.5 64V66.5V69.5L50.5 71.5H49.5L48 72.5H46.5L45 74L45.5 77.5V78.5L47.5 80.5V86.5L46.5 87.5V89.5L45.5 90.5V93.5C45.6667 93.8333 46.1 94.5 46.5 94.5H48.5L49.5 95.5L51.5 96.5V98.5H49.5L47.5 100.5L45.5 102.5L45 105.5L43.5 106.5L42.5 107.5H40.5L39.5 108.5H38.5L37.5 109.5V110.5L36.5 111.5V113.5H46.5L47.5 114.5L51.5 118.5L51 123.5H49.5H47.5L46.5 122.5H45L42.5 121.5L41.5 122.5H40.5L39.5 123.5L39 129.5H36.5L35.5 130.5L24.5 139.5H15.5L14.5 140.5L13.5 141.5L13 142.5H11.5L10.5 143.5Z" stroke="#EE1E1E"/>
</svg>
