<svg width="66" height="76" viewBox="0 0 66 76" fill="none" xmlns="http://www.w3.org/2000/svg">
<path d="M52.5 67.5V72.5L52 74L49.5 74.5L47.5 74L45.5 71.5L44 70L42.5 68H41L40 66.5L35.5 62.5L36.5 61V58.5L35.5 57.5H33.5L32 56.5L31 58L27.5 61.5H26.5H24.5L24 60.5L24.5 58.5V56.5L23.5 54.5V52.5L24.5 51L23.5 49.5L21.5 47.5L19.5 46.5L18 45.5H16.5L14 46L12 47H10L8 47.5H7.5V43.5L6.5 42L5.5 40.5V39.5L4 37.5L1.5 33.5V29.5L2.5 27.5H3.5L4.5 26.5V24.5L3.5 23L1.5 21L2.5 19.5V16.5L1.5 15.5L2.5 13.5H4L4.5 12.5H7.5L9.5 11.5V10L11.5 8.5H12.5L14.5 10.5H17.5L19 9L20.5 7.5L24.5 9.5H26.5L28 10.5L29.5 11.5L31.5 12.5H33.5L35.5 11.5L37 10.5L38.5 9.5H40L41.5 10.5L42.5 11.5V13.5L43.5 14.5L44.5 16.5L45.5 17.5H46.5L47.5 16.5L48.5 15.5L49.5 15L51.5 12L53.5 9L55.5 6L57.5 3L58.5 1.5L60 0.5H61.5L62 2.5L62.5 3V6.5L63.5 7.5V9.5L64.5 10.5V13.5L65.5 14.5V20L64.5 20.5L63.5 22L62.5 23.5L61.5 25L57 24.5L56.5 25.5V27.5L57.5 29.5L58.5 31.5L59.5 33.5V38.5L58 39.5H57L55.5 39L54.5 39.5V41L55.5 42.5L51.5 43.5L50.5 45.5V47.5L51.5 49.5L52.5 50.5L53.5 51.5L55.5 52.5L57.5 53.5L58.5 54.5V56L57 57L55.5 57.5V60.5L56.5 61.5L56 64.5L53.5 65.5V67.5H52.5Z" stroke="#EE1E1E"/>
</svg>
