<svg width="112" height="41" viewBox="0 0 112 41" fill="none" xmlns="http://www.w3.org/2000/svg">
<path d="M7 19L6.75 19.75M111 19.5L110.5 19.75M110.5 19.75L104 23L101 23.5L95.5 24.5L90 24L84.5 27H78.5L75 32L69.5 35.5L67.5 36L62.5 31L57.5 30.5L57 33.5H51.5L49 36.5L43.5 36L41 35L38 37L35 34.5L31.5 35L28 35.5L20 38L17 40L15 39.5L11 39L8.5 38H6.5L4.5 37.5L2.5 35.5L1 34L2.5 33L3 32L2.5 30.5L0.5 28V23.5L5 21L6.5 20.5L6.75 19.75M110.5 19.75L109 17.5L106.5 14.5L101.5 10L97.5 7L95.5 5L93.5 3.5H92L90 5.5H89L86.5 2L85 1.5H83.5L80.5 4H79.5L75.5 1L73.5 1.5L73 3.5L71.5 6.5L69 5.5L66.5 4.5H63L59.5 4L56.5 2.5H50.5L46.5 4.5L42.5 5L41 7L39.5 10H35L33.5 13.5V16.5L32 18.5L28 23L25.5 25L22.5 23L21 20H15.5L10 20.5L6.75 19.75" stroke="#EE1E1E"/>
</svg>
