<svg width="76" height="151" viewBox="0 0 76 151" fill="none" xmlns="http://www.w3.org/2000/svg">
<path d="M1.5 6.5V7.5V10.5H2.5L3.5 11.5V16.5L2.5 17.5V19L3.5 20.5V24L4.5 25.5V28.5L3.5 29.5V31.5L4.5 32.5V33.5L5.5 34.5V36.5L3.5 39.5L6.5 42.5V43.5L7.5 44.5V51.5L4.5 54.5V59.5L3.5 61.5V65.5L0.5 69.5V72L1 73.5L2.5 74L3.5 73L5.5 71.5H6.5L7 72.5L8.5 75.5L10.5 77.5L12.5 80.5V84.5H13.5L15.5 86.5V87.5L14.5 88.5V92.5L17.5 95.5V96.5L18.5 97L19 98.5L15 102.5H14.5V104.5V106L15.5 107.5V108.5L20.5 114.5V117.5L17.5 119.5V122.5L18.5 123.5V124.5L21.5 126V129.5L23.5 131.5L27.5 133.5L29.5 135.5H32.5L33.5 134.5L35 133.5L37.5 135.5V137L36.5 138.5V139.5L37.5 140.5L45.5 149.5H47L48.5 150.5H49.5V148L53.5 143.5V139.5L52.5 138.5V138L51.5 136.5V133L52.5 131.5H53.5L57.5 127.5V123L58.5 122V116L59.5 114.5V112.5L64.5 108.5L69.5 104.5V102.5L75.5 96V91.5L74.5 90.5L69.5 83.5V82.5L71.5 80.5V77.5L66 73.5L64.5 72.5V71.5L65.5 70.5L67.5 69.5V68.5L66.5 67.5V63.5L67.5 61.5L68.5 60.5L69.5 59.5V57.5L68.5 56L66.5 57.5L64.5 57V53.5L61.5 50.5V49.5L62.5 48.5L66.5 41.5V38.5L65.5 37.5L62.5 33.5L54.5 28.5V27.5L55.5 26.5V22.5L56.5 21.5V19.5L57.5 18.5V14.5H53.5L52.5 13.5L51.5 11.5H49.5L48 10.5H38L34.5 6.5H31.5L30.5 5.5H25.5L19.5 0.5H16.5L15 1.5H7.5L6.5 2.5H5.5L1.5 6.5Z" stroke="#EE1E1E"/>
</svg>
