<svg width="93" height="83" viewBox="0 0 93 83" fill="none" xmlns="http://www.w3.org/2000/svg">
<path d="M6.5 58.5H3.5L2.5 59.5L1.5 60.5L2.5 61.5V62.5L4.5 64.5H5.5L7.5 66.5L12.5 70.5L13.5 71.5H17.5L19.5 73.5H20.5L21.5 72.5V70.5L22.5 69.5H25L25.5 70.5H26.5V71.5L27.5 72.5V73.5L28.5 74.5H29.5L30.5 75.5L32.5 76.5V79.5L33.5 80.5H36L37.5 81.5L39.5 79.5V79L41 77L46.5 70.5V67.5L45.5 66.5V65.5L46.5 64.5V59.5L43.5 57.5V54.5L44 54L45 53.5H50.5L51.5 54.5H52.5L53.5 55.5H54.5L55.5 54.5H56.5L60.5 51.5H61.5L62.5 50.5H63.5L64.5 49.5H65.5L66.5 48.5V46.5L67.5 45.5H68.5L69.5 44.5H70.5V41.5L71.5 40.5V39.5L72.5 38.5H76.5L77.5 37.5V35.5L78.5 34.5V33.5L79.5 32.5H86.5L87.5 31.5V30.5L88.5 29.5V24.5L90.5 23L92.5 21.5V20L91.5 18.5V16.5L90.5 15.5V11.5L88.5 10.5L87.5 9.5H84.5V8.5L83.5 7.5V6.5L82.5 5.5V4.5L81.5 3.5V2.5L80.5 1.5H77.5L76.5 0.5H71.5L68.5 3.5H64.5L63.5 2.5H61.5L60.5 1.5H57.5L56.5 2.5L54.5 4.5V7.5L53.5 8.5L52.5 10.5H51.5L48.5 13.5L46.5 14.5V16.5H44.5L43.5 17.5L42.5 18.5L41.5 19.5L39.5 20.5H34.5L32.5 22.5L31.5 24.5L30.5 26.5V31.5L29.5 32.5L28.5 34.5L27.5 35.5V44.5L26.5 45.5H21.5L20.5 46.5H19L15.5 50V51.5L13.5 53.5L12 54.5H10.5L9.5 55.5L6.5 58.5Z" stroke="#EE1E1E"/>
</svg>
