<svg width="32" height="41" viewBox="0 0 32 41" fill="none" xmlns="http://www.w3.org/2000/svg">
<path d="M31.5 6.5V3.5L27.5 0.5H25H18.5L17.5 1.5V2.5L16.5 3.5V5.5L15.5 6.5H11.5L10.5 7.5V8.5L9.5 9.5V12.5H8.5L7.5 13.5H6.5L5.5 14.5V16.5L4.5 17.5H3.5L2.5 18.5H1.5L0.5 19.5V20.5L2.5 22.5H3.5V28.5L4.5 30L6.5 30.5V31.5L5.5 32.5V34.5L9.5 38.5V40.5H10.5H12.5L14.5 38.5H15.5H16.5L18.5 40.5H20.5L21.5 39.5L22.5 38.5L21.5 37.5V35L22.5 33.5V32.5L27.5 27.5V25.5L28.5 24.5L29.5 23.5V22.5L27.5 20.5V16.5L28.5 15.5V13.5L29.5 12.5V8.5L31.5 6.5Z" stroke="#EE1E1E"/>
</svg>
