<svg width="67" height="55" viewBox="0 0 67 55" fill="none" xmlns="http://www.w3.org/2000/svg">
<path d="M3 27.5L1.5 25L2.5 23.5L3.5 22.5H4.5L5 23.5C5.4 23.9 6.83333 24 7.5 24L9.5 23L11 21.5L12 19.5C12.1667 19.3333 13.5 18.1 17.5 14.5V12.5L21 9.5L24 6.5L28 2L30 0.5H30.5L33 1.5L34.5 2.5L36 4L38.5 4.5L41.5 5.5L44.5 6.5L47 8.5L51 17L56 24.5L58.5 30L63.5 35.5H64.5L65 38.5L66.5 41.5V42.5L63 45.5L62 46.5C61.6667 47.1667 60.9 48.6 60.5 49C60.1 49.4 59.3333 49.1667 59 49H56.5H55L52 51.5L50.5 53L48.5 53.5L43.5 52L38.5 49L36.5 48L35 46.5H34.5L31.5 48.5L28 49.5L23.5 47.5L21.5 46.5L15.5 41.5L13.5 40.5L11.5 39L11 37.5L10.5 33.5V32L9.5 30L8.5 29.5H6.5L4.5 28.5L3 27.5Z" stroke="#EE1E1E"/>
</svg>
