<svg width="64" height="70" viewBox="0 0 64 70" fill="none" xmlns="http://www.w3.org/2000/svg">
<path d="M39 5V2L40 1H43L45.5 2.5L47.5 5H50.5H56L62 9.5V11.5V14L62.5 16.5L61.5 18L59.5 19L59 21.5L60 24.5L61.5 28.5L61 35.5L60.5 37.5C60.3333 38.1667 60 40.9 60 46.5L58 47L54.5 44.5L52.5 43.5L50.5 43H49L46 45.5L43 49.5L42 51L41.5 53V55C41.8333 55.3333 42.5 56.2 42.5 57V59C42.5 59.3333 42.3 60.1 41.5 60.5C40.7 60.9 40.1667 60 40 59.5L39 59H38L36 59.5H34L33.5 58.5L32 58L31 57.5L30.5 59L29 60.5C28.2 60.9 27.6667 60.6667 27.5 60.5L26 61C25.8333 61.1667 25.5 61.7 25.5 62.5C25.5 63.3 25.8333 63.5 26 63.5L27.5 64.5L28 66L27 67.5C26.8333 67.6667 26.1 68.2 24.5 69L23.5 68.5L22.5 67.5L20 66L17.5 63L16 61.5L13 59.5L10.5 57.5H8C7 57.5 8 57.5 7 58C6.2 58.4 5.66667 58.5 5.5 58.5L4.5 59L3 58.5V57L4 55L6.5 51.5L7 50V48L6 45L5 42L4 39.5L3.5 37.5L2.5 34C2.33333 34 1.7 33.5 0.5 31.5V28.5L1.5 26.5H5.5L7 26L9 25C9.33333 24.8333 10.9 23.9 14.5 21.5L17.5 20L20 19.5L22 21.5L24 24L25.5 26L27.5 27.5L30 29L29.5 27V23L30.5 21.5L31.5 20C31.6667 19.8333 32.1 19.1 32.5 17.5C33 15.5 32.5 17.5 34 16L34.5 14V12L35.5 11L38 10.5L38.5 9.5L39 7.5C39.4 6.3 39.1667 5.33333 39 5Z" stroke="#EE1E1E"/>
</svg>
