<svg width="87" height="43" viewBox="0 0 87 43" fill="none" xmlns="http://www.w3.org/2000/svg">
<path d="M7.5 40.5L6.5 38.5V31L4.5 30.5L3.5 29.5L3 28.5L1.5 27.5L0.5 25.5V20.5L1.5 19.5V18.5L2.5 17.5L3.5 16.5L5.5 14.5L6.5 13.5H8.5L9.5 14.5H11L12.5 15L13.5 13.5L14.5 12.5V11.5V10.5L15.5 9.5H16.5H19.5L21.5 8.5L23.5 7.5L24.5 6.5H25.5H27.5L30.5 3.5L31.5 3V2V1.5L32 0.5H34H37.5H39H40H41L42 1H43L44 1.5L44.5 2L45.5 3L46.5 5L47.5 5.5V6.5L48.5 7.5L49.5 8.5L50.5 9.5L53.5 10.5H59.5L61.5 9.5H63.5L64.5 10.5L66.5 11.5L69.5 10.5L71.5 11L73.5 12L75 12.5L76.5 13L77.5 13.5L80 13L81.5 13.5L82.5 14.5L84 16L84.5 16.5L85.5 17.5L86 18L86.5 18.5V19L86 19.5H85H81.5L80.5 20.5H78.5L77.5 21.5H76.5L75.5 23L74 22.5L72.5 23.5H69.5L68.5 22.5L67.5 21.5H66L64.5 22.5H61.5L60.5 21.5H57.5L55.5 22.5L54 24.5L53.5 25.5V30.5L52.5 31.5L50.5 32.5L49.5 34.5L48.5 36L48 37.5L46.5 38.5L45.5 37.5V36.5L45 35.5L44.5 34.5L43.5 33.5L40.5 31.5H38.5L37 32.5H31.5L30.5 33.5H28.5H27.5H26.5L25.5 34.5H23.5L22.5 35.5L21.5 36.5H20.5H19.5H18.5L18 37L16.5 37.5L15 38.5L14 39.5L12.5 40.5L12 41L11.5 41.5H10.5L9.5 42.5H9L8 41.5L7.5 40.5Z" stroke="#EE1E1E"/>
</svg>
