<svg width="88" height="88" viewBox="0 0 88 88" fill="none" xmlns="http://www.w3.org/2000/svg">
<path d="M6.5 87L8.5 86.5L9 87.5H12.5L14.5 85.5H15.5V82.5L17 81.5H18.5L20 80.5L21.5 79.5L24.5 76.5L26.5 75.5L28 73.5L29.5 72L30 70.5L32.5 67.5H33.5H37L36.5 65.5L37.5 64.5V62.5L40 61L44.5 60.5L47.5 57.5H49H53.5L56.5 59.5H58.5L59.5 58.5V55.5L62 52.5H63.5L65 51.5H66L66.5 50.5L67.5 49.5H69.5L70.5 48.5V47.5L71.5 46.5V45.5L73.5 43.5H76.5L79.5 42V40.5V39.5L78.5 38.5V36.5L77.5 35.5V33.5L78.5 32.5L79 30.5L80.5 29.5V24.5L81.5 23.5V22.5H83.5L84.5 21.5H86.5L87.5 20.5V19.5L86.5 18.5L85.5 17.5V16.5H84.5V11.5L83.5 10.5L82.5 9.5H78.5L77 10.5H72.5L71.5 9.5H70.5L69.5 8.5H67.5L66.5 9.5V12.5L65.5 13.5H64L62.5 14.5L61.5 15.5L58.5 17.5H54L52.5 15.5H51.5V13.5L50.5 12.5V9L48.5 7.5L46.5 8.5L45 9.5L43.5 10.5C42.8333 10.8333 41.4 11.5 41 11.5H39.5L38 9.5L36 7.5H34L32.5 6.5L30.5 5.5L28.5 4.5L25.5 1.5L24.5 1L23.5 1.5L21.5 3.5L20.5 4.5L19.5 5.5L19 7.5H18.5L17.5 8.5H14.5L13.5 9.5H11.5L9.5 11.5L7.5 12.5L6 14.5L5.5 16.5H6.5V19.5L7.5 22V26.5L9.5 28.5V34.5L8.5 35.5V43.5L9.5 44.5L10.5 46.5V49.5L9.5 51L8.5 53.5L6.5 55L5.5 56.5L4.5 58.5L2 62.5L0.5 68V73.5L2.5 76.5L3.5 78.5L4.5 80.5V82.5L3.5 84.5L5 85.5L6.5 87Z" stroke="#EE1E1E"/>
</svg>
