<svg width="121" height="76" viewBox="0 0 121 76" fill="none" xmlns="http://www.w3.org/2000/svg">
<path d="M84.5 71.5H82.5L81.5 73H79.5L78 74.5H74.5L73.5 75.5H70.5V71.5H68.5L66 73.5H63.5L63 70.5L61.5 69.5H59.5L58.5 68.5H55.5L53.5 66.5V65.5L55.5 64V63V60.5L57.5 58.5V56.5L54.5 53.5H53.5L52.5 54.5H49.5L41 48.5L40.5 47.5H38L36.5 48.5L33.5 45.5H32L31.5 46.5L30 45.5L27.5 44.5L25.5 43L25 42L23.5 41.5H19.5V42.5H16.5L14.5 40.5V36L13.5 34.5V29L14.5 28V26.5L13.5 25.5L14.5 24.5V22.5L15.5 21L14 19.5L11.5 20L9.5 22L7.5 20.5L6.5 18.5L0.5 10.5V7L2.5 5L4.5 0.5H5.5L7.5 1.5L8 2.5L9.5 3.5L10.5 2.5H12L14.5 3.5H16.5L17.5 4.5L18.5 5.5H21.5L24.5 6.5V8.5L25.5 10.5L28.5 13.5L29.5 14.5L30.5 15.5H33L35.5 16.5L37.5 17.5L39.5 18.5L42 19.5H45.5L47.5 18.5H50.5L51.5 19.5H53.5L54.5 20.5H56.5L57.5 19.5L59 18.5H61L63 19.5L63.5 20.5L64.5 21.5H65.5C65.9 21.5 66.3333 22.1667 66.5 22.5H72.5L73.5 23.5L74.5 24.5V25.5L75.5 26.5L77.5 27.5L79.5 28.5H81.5L83.5 30.5V31.5L90.5 38.5H92.5H94.5L95.5 39.5L97.5 40.5L99.5 41.5L101.5 42.5H105.5L106.5 43.5H109L110.5 42.5L112 41L116.5 41.5L118.5 43L119.5 45L118.5 47L117.5 47.5L115.5 48L114.5 49.5L113.5 50.5H112H110.5L108.5 49.5L106.5 50.5H104.5L102.5 49.5L100.5 51L98.5 52.5L96.5 53.5L95.5 54.5H94.5L93 53.5L91.5 52.5L90.5 54L88.5 55.5V57.5L89.5 59L89 62.5L87 63.5H85.5L84.5 64.5L83.5 66.5L84.5 67.5L85.5 69.5V70.5L84.5 71.5Z" stroke="#EE1E1E"/>
</svg>
