<svg width="84" height="75" viewBox="0 0 84 75" fill="none" xmlns="http://www.w3.org/2000/svg">
<path d="M10.5 11.5H9.5H7.5V16.5L8.5 17.5L10.5 20L9 21.5H7L6.5 22.5L4.5 23V23.5L3.5 24.5V29.5L2 30.5L1.5 32.5L0.5 34V35.5L1.5 36V38L2.5 39.5V40.5H3.5H4.5L6.5 39.5L7.5 40.5L8 43.5H11L17 46.5H18.5V47L19.5 48.5H24L24.5 49.5H25.5L26 52.5H30L33.5 58.5L36.5 55L37.5 53.5L39.5 52L41 51.5L42.5 52.5L45 52L48.5 50H51.5L52.5 48L53.5 46H57L59.5 48L60.5 51L62.5 54V56.5L60.5 58.5L59 60L57.5 61.5V62.5L59 63.5H60.5L62.5 65.5L64.5 66.5L67 69L69.5 71.5L72.5 73.5L74.5 74.5H76.5L78 73L81.5 72L83 69.5L82 68L80 66.5L78 64.5L76 62.5L74.5 60.5V58.5L75.5 56.5L74.5 54.5L72.5 53.5L70.5 53L67.5 52L65.5 51V48.5L66.5 48L66 42.5L64 40L62.5 37.5V33L61.5 32L60 31.5L59.5 29.5L58.5 28V23.5L59 21.5L58.5 20.5L57.5 19.5V11.5L55.5 10.5H54.5L53.5 9.5V8.5L52.5 7.5V4L52 2.5L51.5 0.5H50.5H49.5C49.1667 0.833333 48.5 1.6 48.5 2C48.5 2.4 47.8333 2.5 47.5 2.5L47 3.5L46.5 4.5V7.5L45.5 8.5H42.5H39.5L38.5 9.5L37.5 10.5L36.5 9.5L36 8.5L34 7.5L33.5 8.5L32 9.5H31.5L30.5 10.5H28.5L27 11.5H18.5L16.5 13.5H15.5L14.5 12.5L13.5 11.5L12.5 10.5H11.5L10.5 11.5Z" stroke="#EE1E1E"/>
</svg>
