<svg width="119" height="81" viewBox="0 0 119 81" fill="none" xmlns="http://www.w3.org/2000/svg">
<path d="M47.5 72.5L44.5 75.5V78L43 79L40 79.5L32 76.5L29.5 77.5L26.5 75.5H24.5L22.5 76.5H16L13.5 75.5L10.5 73V71.5L9 70L8 68.5L6.5 67.5L7.5 66.5L8.5 65.5V63.5L6.5 61.5V58.5V54.5L1.5 49.5L2.5 48.5L3.5 47.5L4.5 46.5H5.5V45.5V43.5L6.5 42.5H8.5L9.5 41.5L11.5 40.5L13.5 38.5L14.5 37.5L16.5 36.5L17.5 34.5L19.5 33.5V32L20.5 30.5L22.5 28.5H27L26.5 26.5L27.5 25.5V23.5L29.5 22L34.5 21.5L35.5 20.5L37.5 18.5H40.5H43.5L44.5 19.5L46.5 20.5H48.5L49.5 19.5V16.5L52 13.5H53.5L54.5 12.5H55.5C55.9 12.5 56.3333 11.8333 56.5 11.5L57.5 10.5H59.5L60.5 9.5V8.5L61.5 7.5V6.5L63.5 4.5H66.5L67.5 3.5L68.5 2.5H69.5L70.5 1.5H71.5L72.5 0.5H73.5L74.5 1.5V4.5H77.5L79.5 5.5L81.5 6.5L84.5 7.5H85.5V8.5L86.5 9.5H91L91.5 10.5H92.5V12.5L93.5 13.5H97L97.5 14.5L98 15.5L98.5 16.5L99.5 18.5L100.5 19.5L101.5 18.5L103.5 16.5L104.5 14.5L106.5 12.5H108.5L109.5 13.5H111.5L112.5 12.5L114.5 10.5H115.5H116.5H117.5L118.5 11V12L117.5 13.5V14.5L116.5 15.5L114.5 16.5L113 17.5L111.5 18.5V19.5L112 21.5L111 22.5H110.5L109.5 21.5H108L107 22.5L105 23.5L104.5 24.5H99.5L98 25.5C97.8333 25.8333 97.5 26.6 97.5 27C97.5 27.4 96.8333 27.5 96.5 27.5L95.5 28.5H94.5L93.5 29.5H89.5L87 31.5L86 32.5H85L84.5 31.5H80.5L79.5 32V32.5L78 33.5L77.5 34.5L76 35.5H73.5H72.5L71.5 36V40.5L71 43.5H70L68.5 44.5V53.5L67.5 54.5V55.5L68.5 56.5L68 59.5L67.5 60.5C67 61.3333 66 63.1 66 63.5C66 63.9 63.6667 63.6667 62.5 63.5L61.5 64.5H59.5L57.5 65.5L55.5 66.5L54.5 67.5H52.5L51.5 68.5L50.5 69.5L47.5 72.5Z" stroke="#EE1E1E"/>
</svg>
