<svg width="96" height="136" viewBox="0 0 96 136" fill="none" xmlns="http://www.w3.org/2000/svg">
<path d="M47 3.5L48.5 1L52.5 0.5L56 1.5L59 3.5L62.5 7.5L65 10.5V12.5L67 14.5L70.5 16L72.5 16.5L74.5 17.5L77 20L81 22L83 21H84.5L88.5 25L91.5 26.5L95 27V29.5V32.5L94 35.5L91.5 36L90.5 37.5V39L90 40.5L89.5 41.5L88.5 42.5L88 45L86 47.5L85.5 50L85 52.5H83.5L81 50.5L78.5 47.5L76.5 44.5L75.5 45L73.5 46L62.5 52H58L57 53.5V56.5L58.5 58.5L59 60.5L61 66.5L63 73L62.5 77L59 82V83L60.5 84L63.5 82.5L67 83L72.5 87L75.5 90.5L74 91.5L72 95L71 99L68.5 100L64.5 103.5L58.5 106C58.1667 106.5 57.1 107.9 55.5 109.5C53.9 111.1 52.8333 111.167 52.5 111H50L48.5 112L47 114.5C46.6667 114.667 45.6 114.8 44 114C42.4 113.2 41.3333 113.333 41 113.5L39 114L34.5 117L32 118L30 120L29.5 125.5L27 127.5L24 128L21 127L17.5 127.5L14 130.5L10 130L8.5 131.5L6 135.5H5.5H3L1.5 134L1 130.5L3.5 127.5L4.5 125.5V124.5L3 123.5C2.5 122.833 1.5 121.4 1.5 121C1.5 120.6 2.83333 117.833 3.5 116.5L5.5 112C5.83333 111.667 7.1 110.7 9.5 109.5L11.5 108.5L14 109L15.5 109.5L22 105V101.5C22 99.5 23.3333 99.3333 24 99.5H25.5C26 99.1667 27 98.2 27 97C27 95.8 26.3333 95.8333 26 96L25 94.5V93.5L29 92.5L35 93.5L37.5 93L38.5 92V89.5L38 87L36 81C35.6667 80.1667 34.9 78.4 34.5 78C34.1 77.6 34.6667 76.5 35 76L36 73V70V65.5V62.5L34.5 58.5L32.5 54.5V52L33 47.5L35 45V44L36 39L38.5 36L40 33L39.5 30L37.5 25L38.5 19L42 17.5L43.5 16L44.5 13.5L46.5 11L49 8.5L47 5V3.5Z" stroke="#EE1E1E"/>
</svg>
