<svg width="108" height="104" viewBox="0 0 108 104" fill="none" xmlns="http://www.w3.org/2000/svg">
<path d="M69.5 9.25961V6.5V4.5L68.5 3.5L66.5 2.5L64.5 0.5H62.5L60.5 1.5H56.5L55.5 2.5H53.5H51.5L49.5 3.5L48.5 4L47 4.5L46 5.5H42.5L40.5 7L38.5 8.5L37 9.5L35.5 10L33.5 11.5H31.5L29.5 12.5L28.5 14.5L27.5 16.5L26 18.5H17.5L16.5 20.5L14.5 21.5H9.5L7.5 22.5L6.5 24.5L5.5 25.5L3.5 26.5L1.5 28.5L0.5 30.5V32.5L2.5 33.5H4.5L5.5 34.5L4.5 35.5L2.5 38.5V40.5L1.5 42.5L2.5 44.5V46.5L3.5 48.5L4.5 50.5V53V54.5L5.5 55.5H8H10.5H12.5L14.5 56.5H15.5L16.5 55.5H17.5H19.5L21 56.5H22L23.5 55.5L25.5 54.5L27.5 53.5L29.5 52.5L30.5 53.5L31.5 55.5L32.5 57.5V63.5L33.5 65.5V68.5L32.5 70.5V73.5L33.5 74.5L34.5 76L35.5 77L36.5 79V80L37.5 80.5H40.5H43.5L45.5 81.5L46.5 82.5L47.5 83.5L48.5 84.5L49.5 86.5L50.5 88.5L51.5 90.5V92.5L53.5 93.5L55.5 94.5L56.5 96.5L62.5 101.5L64.5 102.5L66 101.5H66.5H67.5V100.5H68.5L69.5 100L70.5 99.5V98.5H71.5L72.5 98L73.5 96.5L72.5 94.5L73.5 92.5L74 91.5L75.5 90.5H77.5L78.5 88.5L79.5 87.5V85.5L83.5 82.5H85.5L87.5 83.5L89.5 84.5L91.5 85.5H100.5L101.5 84.5L103.5 83.5L105.5 82L107.5 80.5V78.5L106.5 77.5H102L100.5 76.5L99.5 75.5L98.5 74.5V73L97.5 72V70.5L96.5 69.5L95.5 68.5V66.5L94.5 65.5L93.5 64L92.5 62.5L91.5 61.5L90.5 60.5L89.5 59.5L88.5 58.5L87.5 57.5L86.5 57L85.5 56.5L83.5 54.5L80.5 52.5L79.5 51.5L79 51L78.5 50.5V49.5L79.5 47.5V44.5L78.5 43.5L77.5 42.5L76.5 41.5L74.5 40.5L73.5 38.5V34.5V34L73 33.5L72.5 32.5V28.5L71.5 27.5V26.5C71.1667 26.3333 70.5 25.9 70.5 25.5V24.5L69.5 23.5V20.5L68.5 19.5V18.5L67.5 16.5V14L68.5 12V11.5L69 10.5L69.5 9.25961Z" stroke="#EE1E1E"/>
</svg>
