<svg width="58" height="53" viewBox="0 0 58 53" fill="none" xmlns="http://www.w3.org/2000/svg">
<path d="M2.00001 44C0.400009 42.8 1.00001 42.5 1.50001 42.5V36.5L2.5 35.5H3.5L4.5 34L5.5 34.5L6.5 33.5V32.5L5.5 31V28.5C5.83333 28.1667 6.5 27.3 6.5 26.5C6.5 25.7 5.16667 24.1667 4.5 23.5V16.5L5.5 15.5L4.5 14C4.5 13.5 4.6 12.2 5 11C5.4 9.8 5.5 9.83333 5.5 10L6 9L8 7C8.5 6.5 9.9 5.5 11.5 5.5H14.5H17.5C18.1667 5.83333 20 6.9 22 8.5C23.2 8.9 23.8333 8.33333 24 8L24.5 6.5L28 6L31.5 2.5C31.8333 2.16667 33.1 1.6 35.5 2C36.7 2 37.3333 1.33333 37.5 1L39 0.5H42.5L44 1.5C44.1667 1.83333 44.9 2.6 46.5 3L47.5 2.5L49 2L50.5 2.5C50.8333 3 51.7 4.2 52.5 5C53.3 5.8 53.8333 5.66667 54 5.5C54.3333 5.66667 55.2 6.3 56 7.5C56.4 8.3 56.1667 8.83333 56 9L55.5 11V12.5C55.3333 13.1667 55.2 14.9 56 16.5L57 17.5L57.5 18.5C57.5 18.8333 57.4 19.8 57 21L56 22L55 24L54 26L53.5 27V28C53.1667 28.1667 52.4 28.6 52 29C51.6 29.4 51.1667 29.1667 51 29L50 28.5L49 28C48.8333 28.1667 48.2 28.9 47 30.5L46 31.5L44 32.5L43 33L42.5 35V37.5C42.5 38.5 42 38.5 41.5 39C41.1 39.4 40 39.8333 39.5 40H38.5H36L34.5 41.5L33.5 42.5L32.5 43C32 43.1667 30.8 43.5 30 43.5H29C28.1667 44 26.2 45.2 25 46C23.8 46.8 22.1667 46.3333 21.5 46L20 48.5V50L19.5 51.5L18 50.5H15.5H13C12.6667 50.3333 11.7 49.4 10.5 47C10 45.5 9 46 8 46C7.2 46 7 46.3333 7 46.5H5C4.66667 46.1667 3.60001 45.2 2.00001 44Z" stroke="#EE1E1E"/>
</svg>
