<svg width="47" height="47" viewBox="0 0 47 47" fill="none" xmlns="http://www.w3.org/2000/svg">
<path d="M4.5 17.5L5.5 18.5V19.5L4.5 20.5H2.5V24.5L3.5 25.5V27.5L4.5 29V30.5L0.5 33.5V39.5V41.5L1.5 42.5L4.5 44.5L5.5 45.5L6.5 44.5H8L9 43.5H10.5L12.5 45.5H17.5L18.5 44.5H19.5L22.5 41.5L23.5 40.5H25.5L28.5 37.5H33.5L37.5 41.5L38.5 42L39.5 40.5C39.8333 40.3333 40.5 39.9 40.5 39.5V38.5L41.5 37.5L44.5 35.5L45.5 34.5V29.5L44.5 28.5V27L43.5 25.5V24.5L45.5 22.5V19.5L44.5 18.5V16.5L43.5 15.5V14.5L44.5 13.5L45.5 12.5L46.5 11.5V8.5L43.5 5.5H42.5L41.5 4.5H37.5L36.5 3.5L35.5 2.5L34.5 1.5H32.5L31.5 2.5H30.5L29.5 3.5H28.5L27.5 4.5H25.5L23.5 2.5L22.5 1.5L21 2.5H19.5L18.5 3.5L17.5 4.5V7.5C17.1667 7.66667 16.5 8.1 16.5 8.5C16.5 8.9 15.5 8.66667 15 8.5L13.5 7.5H12.5L11.5 8.5H10.5L9.5 9.5C9.16667 9.83333 8.5 10.6 8.5 11V13.5L5.5 16.5L4.5 17.5Z" stroke="#EE1E1E"/>
</svg>
